<svg width="16" height="16" viewBox="0 0 16 16" fill="none" xmlns="http://www.w3.org/2000/svg">
<path d="M7.99992 1.33398C11.6818 1.33398 14.6666 4.31875 14.6666 8.00065C14.6666 11.6825 11.6818 14.6673 7.99992 14.6673C4.31802 14.6673 1.33325 11.6825 1.33325 8.00065C1.33325 4.31875 4.31802 1.33398 7.99992 1.33398ZM8.10639 10.6673C6.74945 10.6673 5.5278 11.2465 4.67509 12.1711C5.58684 12.8989 6.74258 13.334 7.99992 13.334C9.31292 13.334 10.5151 12.8595 11.4443 12.0727C10.597 11.2056 9.41452 10.6673 8.10639 10.6673ZM7.99992 2.66732C5.0544 2.66732 2.66659 5.05513 2.66659 8.00065C2.66659 9.20772 3.06759 10.3211 3.74363 11.2149C4.83751 10.0567 6.38755 9.33398 8.10639 9.33398C9.76265 9.33398 11.2621 10.005 12.3478 11.0901C12.9683 10.2184 13.3333 9.15218 13.3333 8.00065C13.3333 5.05513 10.9455 2.66732 7.99992 2.66732ZM7.99992 3.33398C9.47265 3.33398 10.6666 4.52789 10.6666 6.00065C10.6666 7.47338 9.47265 8.66732 7.99992 8.66732C6.52716 8.66732 5.33325 7.47338 5.33325 6.00065C5.33325 4.52789 6.52716 3.33398 7.99992 3.33398ZM7.99992 4.66732C7.26352 4.66732 6.66658 5.26427 6.66658 6.00065C6.66658 6.73705 7.26352 7.33398 7.99992 7.33398C8.73632 7.33398 9.33325 6.73705 9.33325 6.00065C9.33325 5.26427 8.73632 4.66732 7.99992 4.66732Z" fill="#B3B3B3"/>
</svg>
