<svg width="28" height="16" viewBox="0 0 28 16" fill="none" xmlns="http://www.w3.org/2000/svg">
<path d="M1.69754 7.46484L4.92931 9.33022C4.59587 9.9388 4.32539 10.5847 4.12487 11.2632L0.52002 10.2956C0.806821 9.29991 1.20321 8.35323 1.69754 7.46484Z" fill="#8271DD"/>
<path d="M22.9185 11.2632C22.7203 10.5847 22.4498 9.9388 22.1164 9.33022L25.3458 7.46484C25.8402 8.35323 26.2389 9.29991 26.5234 10.2956L22.9185 11.2632Z" fill="#8271DD"/>
<path d="M16.7978 0.898724L15.8301 4.50357C15.1632 4.34268 14.4684 4.24941 13.7549 4.23076V0.5C14.8018 0.518654 15.8208 0.656225 16.7978 0.898724Z" fill="#8271DD"/>
<path d="M20.0787 2.19803L18.2156 5.4298C17.6071 5.09636 16.9589 4.82588 16.2827 4.62535L17.248 1.02051C18.2436 1.30731 19.1927 1.7037 20.0787 2.19803Z" fill="#8271DD"/>
<path d="M21.8812 8.92725C21.5175 8.328 21.0884 7.77305 20.6058 7.26706L23.243 4.62988C23.9541 5.36671 24.5814 6.18048 25.113 7.06187L21.8812 8.92725Z" fill="#8271DD"/>
<path d="M20.2769 6.93788C19.7733 6.45522 19.216 6.02851 18.6191 5.66243L20.4845 2.43066C21.3635 2.9623 22.1796 3.58953 22.9141 4.3007L20.2769 6.93788Z" fill="#8271DD"/>
<path d="M10.7633 4.62535C10.0847 4.82588 9.43883 5.09636 8.83025 5.4298L6.96487 2.19803C7.85326 1.7037 8.79995 1.30731 9.7956 1.02051L10.7633 4.62535Z" fill="#8271DD"/>
<path d="M4.00356 11.7134C3.84267 12.3803 3.74941 13.0751 3.73076 13.7886H0C0.0186538 12.7417 0.156228 11.725 0.398727 10.748L4.00356 11.7134Z" fill="#8271DD"/>
<path d="M6.43807 7.26706C5.95541 7.77305 5.5287 8.328 5.16262 8.92725L1.93085 7.06187C2.46248 6.18048 3.08972 5.36671 3.80089 4.62988L6.43807 7.26706Z" fill="#8271DD"/>
<path d="M8.42685 5.66243C7.82759 6.02851 7.27264 6.45522 6.76666 6.93788L4.12949 4.3007C4.86631 3.58953 5.68008 2.9623 6.56147 2.43066L8.42685 5.66243Z" fill="#8271DD"/>
<path d="M13.2885 4.23076C12.575 4.24941 11.8802 4.34268 11.2133 4.50357L10.248 0.898724C11.2249 0.656225 12.2416 0.518654 13.2885 0.5V4.23076Z" fill="#8271DD"/>
<path d="M23.313 13.7886C23.2943 13.0751 23.2011 12.3803 23.0402 11.7134L26.645 10.748C26.8875 11.725 27.0251 12.7417 27.0437 13.7886H23.313Z" fill="#8271DD"/>
<path d="M12.7755 15.2988C12.062 14.8884 11.8172 13.9743 12.2299 13.2608C12.6403 12.5473 13.5543 12.3025 14.2678 12.7152C14.9813 13.1279 15.2262 14.0396 14.8135 14.7531C14.4031 15.4666 13.489 15.7115 12.7755 15.2988Z" fill="white" fill-opacity="0.9"/>
<path d="M14.9907 13.7395L13.5217 4.66211L12.0527 13.7395L13.5217 14.0077L14.9907 13.7395Z" fill="white" fill-opacity="0.9"/>
</svg>
