<svg width="36" height="37" viewBox="0 0 36 37" fill="none" xmlns="http://www.w3.org/2000/svg">
<rect y="0.5" width="36" height="36" rx="18" fill="white" fill-opacity="0.08"/>
<path d="M19.7767 18.168L18.3301 18.1683C16.6732 18.1683 15.3301 19.5114 15.3301 21.1683H19.9974L19.9967 21.835L14.6634 21.8344V21.1683C14.6634 20.4467 14.8755 19.7662 15.2541 19.1678L13.3301 19.1683C12.0019 19.1683 10.8551 19.9452 10.3193 21.0692C11.8959 23.1496 14.4488 24.5016 17.3301 24.5016C19.1709 24.5016 20.7304 24.1079 21.997 23.4184L21.9961 17.2156C21.1657 17.3346 20.4059 17.6721 19.7767 18.168ZM22.6634 23.1683C22.6634 23.5365 22.9619 23.835 23.3301 23.835H24.6634C25.0316 23.835 25.3301 23.5365 25.3301 23.1683V17.1683C25.3301 16.8001 25.0316 16.5016 24.6634 16.5016H23.3301C22.9619 16.5016 22.6634 16.8001 22.6634 17.1683V23.1683ZM13.9967 13.835C12.8922 13.835 11.9967 14.7304 11.9967 15.835C11.9967 16.9395 12.8922 17.835 13.9967 17.835C15.1013 17.835 15.9967 16.9395 15.9967 15.835C15.9967 14.7304 15.1013 13.835 13.9967 13.835ZM18.6634 11.835C17.5589 11.835 16.6634 12.7304 16.6634 13.835C16.6634 14.9395 17.5589 15.835 18.6634 15.835C19.768 15.835 20.6634 14.9395 20.6634 13.835C20.6634 12.7304 19.768 11.835 18.6634 11.835Z" fill="white"/>
</svg>
