<svg width="16" height="16" viewBox="0 0 16 16" fill="none" xmlns="http://www.w3.org/2000/svg">
<path d="M8.00327 2.66797C12.0533 2.66797 15.3366 4.45883 15.3366 6.66796V9.33463C15.3366 11.5438 12.0533 13.3346 8.00327 13.3346C4.0255 13.3346 0.787429 11.6072 0.673049 9.45256L0.669922 9.33463V6.66796C0.669922 4.45883 3.95317 2.66797 8.00327 2.66797ZM8.00327 10.668C5.52296 10.668 3.33025 9.9963 2.00311 8.9683L2.00326 9.33463C2.00326 10.5894 4.59168 12.0013 8.00327 12.0013C11.3437 12.0013 13.8951 10.6476 13.9999 9.41323L14.0033 9.33463L14.0041 8.96776C12.677 9.9961 10.484 10.668 8.00327 10.668ZM8.00327 4.0013C4.59168 4.0013 2.00326 5.41317 2.00326 6.66796C2.00326 7.92276 4.59168 9.33463 8.00327 9.33463C11.4149 9.33463 14.0033 7.92276 14.0033 6.66796C14.0033 5.41317 11.4149 4.0013 8.00327 4.0013Z" fill="#B3B3B3"/>
</svg>
