<svg width="17" height="16" viewBox="0 0 17 16" fill="none" xmlns="http://www.w3.org/2000/svg">
<g id="Cycle Amount Icon">
<path id="Vector" d="M8.8034 14.6683C5.12149 14.6683 2.13672 11.6835 2.13672 8.00159C2.13672 4.31973 5.12149 1.33496 8.8034 1.33496C12.4853 1.33496 15.4701 4.31973 15.4701 8.00159C15.4701 11.6835 12.4853 14.6683 8.8034 14.6683ZM8.8034 13.3349C11.7489 13.3349 14.1367 10.9471 14.1367 8.00159C14.1367 5.05611 11.7489 2.66829 8.8034 2.66829C5.85787 2.66829 3.47005 5.05611 3.47005 8.00159C3.47005 10.9471 5.85787 13.3349 8.8034 13.3349ZM6.47005 9.33493H10.1367C10.3208 9.33493 10.4701 9.18573 10.4701 9.00159C10.4701 8.81753 10.3208 8.66826 10.1367 8.66826H7.47007C6.54958 8.66826 5.80339 7.92213 5.80339 7.00159C5.80339 6.08115 6.54958 5.33496 7.47007 5.33496H8.13673V4.00163H9.47007V5.33496H11.1367V6.66826H7.47007C7.28596 6.66826 7.13672 6.81753 7.13672 7.00159C7.13672 7.18573 7.28596 7.33493 7.47007 7.33493H10.1367C11.0572 7.33493 11.8034 8.08113 11.8034 9.00159C11.8034 9.92213 11.0572 10.6683 10.1367 10.6683H9.47007V12.0016H8.13673V10.6683H6.47005V9.33493Z" fill="#8E8E8E"/>
</g>
</svg>
