<svg width="15" height="11" viewBox="0 0 15 11" fill="none" xmlns="http://www.w3.org/2000/svg">
<g id="Group">
<path id="Vector" d="M14.7311 6.35608C14.7136 5.94989 14.3162 5.62553 13.5476 5.39175C12.9515 5.21349 12.1946 5.10537 11.3764 5.08784V1.96982C11.3735 1.91722 11.3589 1.86754 11.3326 1.82371C11.2508 1.47012 10.8563 1.18374 10.1578 0.973338C9.50034 0.774626 8.6412 0.666504 7.73823 0.666504C6.83819 0.666504 5.98782 0.774626 5.34201 0.973338C4.81308 1.13698 4.17896 1.44089 4.17896 1.96397C4.17896 1.99612 4.18188 2.02826 4.18773 2.06041L4.21987 3.39294C2.32042 3.03059 0.488184 4.27838 0.12875 6.17491C0.0878384 6.39115 0.0673828 6.6074 0.0673828 6.82656C0.0673828 8.75523 1.63662 10.3245 3.56529 10.3245C4.3689 10.3245 5.14622 10.0498 5.76865 9.54131C6.31511 9.66989 6.958 9.74002 7.63888 9.74587C7.78791 10.5553 9.54125 10.9264 11.1748 10.9264C12.0748 10.9264 12.9252 10.8154 13.571 10.6138C14.0999 10.4501 14.734 10.1433 14.734 9.62021V6.41161C14.734 6.39407 14.734 6.37362 14.7311 6.35608ZM10.7657 3.58581C10.7657 3.6238 10.6254 3.82543 9.99127 4.0183C9.39806 4.19656 8.57691 4.30176 7.74116 4.30176C7.01937 4.30176 6.31219 4.22578 5.75112 4.08259C5.74235 4.07967 5.73651 4.07967 5.72774 4.07675C5.45013 3.85758 5.14329 3.68224 4.81308 3.55951L4.79263 2.73544C4.99426 2.83772 5.20466 2.91954 5.42383 2.97799C6.05795 3.16209 6.8791 3.26144 7.74116 3.26144C8.6412 3.26144 9.50326 3.15332 10.1608 2.95461C10.3799 2.89032 10.5933 2.80558 10.7949 2.70038V3.466C10.7627 3.50691 10.7657 3.5449 10.7657 3.58581ZM5.51734 1.53733C6.10763 1.35615 6.89663 1.25387 7.73823 1.25387C8.57399 1.25387 9.39514 1.35615 9.98835 1.53733C10.6225 1.7302 10.7627 1.92891 10.7627 1.9669C10.7627 2.00781 10.6196 2.20944 9.98543 2.39939C9.39221 2.57764 8.57399 2.67992 7.73823 2.67992C6.9317 2.67992 6.16607 2.58641 5.58455 2.41692C4.95627 2.23574 4.78094 2.03703 4.76633 1.97274C4.76633 1.9669 4.7634 1.9669 4.7634 1.9669C4.76633 1.91137 4.90075 1.72435 5.51734 1.53733ZM5.52611 8.98317C4.33676 10.0644 2.49283 9.97965 1.41161 8.7903C0.330383 7.60095 0.415128 5.75703 1.60448 4.6758C2.13924 4.18779 2.84058 3.91894 3.56529 3.91894C3.85751 3.91894 4.14681 3.96278 4.42735 4.04752C5.44136 4.36312 6.20406 5.20473 6.42031 6.24212C6.4583 6.43498 6.47875 6.6337 6.47875 6.82948C6.48167 7.65063 6.13393 8.43087 5.52611 8.98317ZM6.26835 9.04746C6.50505 8.75816 6.695 8.43379 6.82942 8.08604C7.07781 8.1065 7.33497 8.12111 7.60381 8.12403V8.17663L7.62134 9.16727C7.1684 9.16142 6.71545 9.12051 6.26835 9.04746ZM7.04859 6.48174C7.21808 6.49343 7.39633 6.49927 7.57751 6.5022L7.59504 7.53666C7.39049 7.53374 7.18885 7.52498 6.99599 7.51036C7.03982 7.28535 7.0632 7.0545 7.0632 6.82656C7.0632 6.7126 7.05735 6.59863 7.04859 6.48174ZM7.76746 5.92067H7.73823C7.4577 5.92067 7.18593 5.90898 6.93462 5.89145C6.82358 5.49987 6.64824 5.13167 6.41154 4.80438C6.84988 4.8599 7.29113 4.88912 7.73531 4.88912C8.63828 4.88912 9.50034 4.781 10.1578 4.58229C10.377 4.518 10.5874 4.43326 10.789 4.33098V5.0966C9.5354 5.13167 8.2467 5.39467 7.76746 5.92067ZM8.15319 6.38531C8.15319 6.38238 8.15319 6.37946 8.15611 6.37362C8.18241 6.29472 8.38989 6.10185 8.99479 5.93236C9.5617 5.77164 10.301 5.68397 11.0783 5.68397H11.128C11.9638 5.68397 12.782 5.78041 13.3781 5.96158C14.0006 6.14861 14.1467 6.34147 14.1496 6.38531V6.38823C14.1467 6.43206 14.0006 6.6337 13.3518 6.82656C12.7528 7.00482 11.9638 7.10125 11.1309 7.10125C10.3244 7.10125 9.55878 7.00774 8.97726 6.84117C8.34898 6.66 8.17657 6.45836 8.15903 6.397L8.15319 6.38531ZM13.4015 10.0585C12.8112 10.2426 12.0193 10.3449 11.1777 10.3449C10.3332 10.3449 9.54417 10.2456 8.95972 10.0673C8.34313 9.87737 8.21456 9.68158 8.21456 9.63775V9.6319L8.19995 8.78446C8.43372 8.89842 8.67627 8.98609 8.92758 9.05038C9.54125 9.2111 10.3215 9.30169 11.1222 9.30169C12.0251 9.30169 12.8814 9.19357 13.5359 8.99486C13.7493 8.93057 13.9538 8.84582 14.1496 8.74647V9.62314H14.1525C14.1525 9.66405 14.0181 9.86568 13.4015 10.0585ZM14.1554 7.90779H14.1525C14.1525 7.93701 14.135 7.97208 14.135 8.00422C14.135 8.04513 13.9976 8.24384 13.3664 8.43671C12.7674 8.61789 11.9696 8.71724 11.1251 8.71724C9.50618 8.71724 8.41619 8.35197 8.18826 8.06851L8.18533 7.82304L8.17365 7.15093C8.3782 7.25321 8.59152 7.33503 8.81069 7.3964C9.44482 7.5805 10.266 7.67985 11.128 7.67985C12.0164 7.67985 12.8638 7.57465 13.5155 7.38179C13.7376 7.32042 13.9509 7.23567 14.1554 7.13047V7.90779Z" fill="#8E8E8E"/>
</g>
</svg>
