<svg width="17" height="16" viewBox="0 0 17 16" fill="none" xmlns="http://www.w3.org/2000/svg">
<g id="Total Cycle Icon Container">
<g id="Group">
<path id="Vector" d="M1.086 6.91244C1.29859 5.55976 1.90327 4.29914 2.82514 3.28672C3.74701 2.27429 4.94558 1.55452 6.27242 1.21655C7.59926 0.878579 8.99609 0.937248 10.2899 1.38529C11.5838 1.83334 12.7178 2.65108 13.5515 3.73724L14 4.32128V2.24915H15V6.2494H11V5.24934H12.7845L12.5095 4.85606C11.8828 3.95557 11.001 3.26321 9.9775 2.86808C8.95405 2.47295 7.83578 2.39311 6.76658 2.63884C5.69737 2.88458 4.72615 3.44464 3.97787 4.24696C3.2296 5.04929 2.73849 6.05718 2.56775 7.14095L1.086 6.91244ZM8 14.9999C6.92599 15.0041 5.86566 14.759 4.90235 14.2841C3.93903 13.8092 3.09899 13.1173 2.44825 12.2628L2 11.6777V13.7499H1V9.74962H5V10.7497H3.2155L3.4905 11.143C4.11727 12.0434 4.99911 12.7357 6.02257 13.1309C7.04603 13.526 8.1643 13.6058 9.2335 13.3601C10.3027 13.1143 11.2739 12.5543 12.0222 11.752C12.7705 10.9497 13.2617 9.94183 13.4325 8.85806L14.9145 9.08658C14.6563 10.7348 13.8176 12.2366 12.5497 13.3209C11.2819 14.4052 9.66826 15.0007 8 14.9999Z" fill="#8E8E8E"/>
</g>
</g>
</svg>
