<svg width="22" height="22" viewBox="0 0 22 22" fill="none" xmlns="http://www.w3.org/2000/svg">
<rect x="0.334961" y="0.334961" width="21.33" height="21.33" rx="10.665" fill="#E14942"/>
<path d="M11 16C8.23857 16 6 13.7614 6 11C6 8.23857 8.23857 6 11 6C13.7614 6 16 8.23857 16 11C16 13.7614 13.7614 16 11 16ZM11 15C13.2091 15 15 13.2091 15 11C15 8.79086 13.2091 7 11 7C8.79086 7 7 8.79086 7 11C7 13.2091 8.79086 15 11 15ZM10.5 12.5H11.5V13.5H10.5V12.5ZM10.5 8.5H11.5V11.5H10.5V8.5Z" fill="white"/>
</svg>
