<svg width="32" height="32" viewBox="0 0 32 32" fill="none" xmlns="http://www.w3.org/2000/svg">
<rect width="32" height="32" rx="16" fill="#E14942" fill-opacity="0.1"/>
<rect x="5.33496" y="5.33496" width="21.33" height="21.33" rx="10.665" fill="#E14942"/>
<path d="M16 21C13.2386 21 11 18.7614 11 16C11 13.2386 13.2386 11 16 11C18.7614 11 21 13.2386 21 16C21 18.7614 18.7614 21 16 21ZM16 20C18.2091 20 20 18.2091 20 16C20 13.7909 18.2091 12 16 12C13.7909 12 12 13.7909 12 16C12 18.2091 13.7909 20 16 20ZM15.5 17.5H16.5V18.5H15.5V17.5ZM15.5 13.5H16.5V16.5H15.5V13.5Z" fill="white"/>
</svg>
