<svg width="24" height="24" viewBox="0 0 24 24" fill="none" xmlns="http://www.w3.org/2000/svg">
<g id="frax-frax-logo 1" clip-path="url(#clip0_2140_37554)">
<g id="Group">
<g id="Group_2">
<path id="Vector" d="M11.9991 23.9997C10.3794 23.9997 8.80801 23.6822 7.32801 23.0565C5.89881 22.452 4.61609 21.5867 3.51372 20.4851C2.41218 19.3836 1.54688 18.1 0.942347 16.6708C0.316651 15.1908 -0.000854492 13.6194 -0.000854492 11.9997C-0.000854492 10.38 0.316651 8.80856 0.942347 7.32856C1.54688 5.89936 2.41218 4.61664 3.51372 3.51426C4.61609 2.41273 5.89881 1.54743 7.32801 0.942897C8.80801 0.3172 10.3794 -0.000305176 11.9991 -0.000305176C13.6188 -0.000305176 15.1903 0.3172 16.6703 0.942897C18.0995 1.54743 19.3822 2.41273 20.4846 3.51426C21.5861 4.6158 22.4514 5.89936 23.0559 7.32856C23.6816 8.80856 23.9991 10.38 23.9991 11.9997C23.9991 13.6194 23.6816 15.1908 23.0559 16.6708C22.4514 18.1 21.5861 19.3827 20.4846 20.4851C19.383 21.5867 18.0995 22.452 16.6703 23.0565C15.1903 23.683 13.6188 23.9997 11.9991 23.9997Z" fill="white"/>
</g>
<g id="Group_3">
<path id="Vector_2" d="M12 23.3642C18.2763 23.3642 23.3642 18.2763 23.3642 12C23.3642 5.72376 18.2763 0.635864 12 0.635864C5.72376 0.635864 0.635864 5.72376 0.635864 12C0.635864 18.2763 5.72376 23.3642 12 23.3642Z" fill="#1B1B1D"/>
</g>
<path id="Vector_3" d="M17.9854 12.0003C17.9854 10.7827 17.6197 9.64987 16.9931 8.70328L18.8516 6.84482L17.1802 5.17347L15.3269 7.02685C14.3752 6.38761 13.2305 6.01423 12.0002 6.01423C10.7827 6.01423 9.64986 6.37999 8.70327 7.00653L6.84396 5.14807L5.17262 6.81942L7.026 8.6728C6.38676 9.62447 6.01337 10.7692 6.01337 11.9994C6.01337 13.2169 6.37914 14.3498 7.00568 15.2964L5.14722 17.1557L6.81856 18.827L8.67195 16.9737C9.62362 17.6129 10.7683 17.9863 11.9986 17.9863C13.2161 17.9863 14.3489 17.6205 15.2955 16.994L17.1548 18.8533L18.8262 17.1819L16.9728 15.3286C17.612 14.3752 17.9854 13.2305 17.9854 12.0003ZM8.37815 12.0003C8.37815 10.0029 10.0029 8.37816 12.0002 8.37816C13.9976 8.37816 15.6223 10.0029 15.6223 12.0003C15.6223 13.9976 13.9976 15.6224 12.0002 15.6224C10.0029 15.6224 8.37815 13.9976 8.37815 12.0003Z" fill="white"/>
</g>
</g>
<defs>
<clipPath id="clip0_2140_37554">
<rect width="24" height="24" fill="white"/>
</clipPath>
</defs>
</svg>
