<svg width="32" height="33" viewBox="0 0 32 33" fill="none" xmlns="http://www.w3.org/2000/svg">
<g id="Group">
<path id="Vector" d="M16 32.5C24.8366 32.5 32 25.3366 32 16.5C32 7.66344 24.8366 0.5 16 0.5C7.16344 0.5 0 7.66344 0 16.5C0 25.3366 7.16344 32.5 16 32.5Z" fill="#627EEA"/>
<g id="Group_2">
<path id="Vector_2" d="M16.165 6.72266V14.2802L22.5527 17.1345L16.165 6.72266Z" fill="white" fill-opacity="0.602"/>
<path id="Vector_3" d="M16.1659 6.72266L9.77734 17.1345L16.1659 14.2802V6.72266Z" fill="white"/>
<path id="Vector_4" d="M16.165 22.0323V27.1674L22.557 18.3242L16.165 22.0323Z" fill="white" fill-opacity="0.602"/>
<path id="Vector_5" d="M16.1659 27.1674V22.0314L9.77734 18.3242L16.1659 27.1674Z" fill="white"/>
<path id="Vector_6" d="M16.165 20.8427L22.5527 17.1338L16.165 14.2812V20.8427Z" fill="white" fill-opacity="0.2"/>
<path id="Vector_7" d="M9.77734 17.1338L16.1659 20.8427V14.2812L9.77734 17.1338Z" fill="white" fill-opacity="0.602"/>
</g>
</g>
</svg>
