<svg width="25" height="24" viewBox="0 0 25 24" fill="none" xmlns="http://www.w3.org/2000/svg">
<g id="Group">
<path id="Vector" d="M12.5 24C19.1274 24 24.5 18.6274 24.5 12C24.5 5.37258 19.1274 0 12.5 0C5.87258 0 0.5 5.37258 0.5 12C0.5 18.6274 5.87258 24 12.5 24Z" fill="white" fill-opacity="0.1"/>
<g id="Group_2">
<path id="Vector_2" d="M12.6245 4.66602V10.3341L17.4153 12.4749L12.6245 4.66602Z" fill="white" fill-opacity="0.602"/>
<path id="Vector_3" d="M12.6244 4.66602L7.83301 12.4749L12.6244 10.3341V4.66602Z" fill="white"/>
<path id="Vector_4" d="M12.6245 16.1482V19.9996L17.4185 13.3672L12.6245 16.1482Z" fill="white" fill-opacity="0.602"/>
<path id="Vector_5" d="M12.6244 19.9996V16.1476L7.83301 13.3672L12.6244 19.9996Z" fill="white"/>
<path id="Vector_6" d="M12.6245 15.2561L17.4153 12.4744L12.6245 10.335V15.2561Z" fill="white" fill-opacity="0.2"/>
<path id="Vector_7" d="M7.83301 12.4744L12.6244 15.2561V10.335L7.83301 12.4744Z" fill="white" fill-opacity="0.602"/>
</g>
</g>
</svg>
