<svg width="28" height="16" viewBox="0 0 28 16" fill="none" xmlns="http://www.w3.org/2000/svg">
<path d="M1.69754 7.34961L4.92699 9.21499C4.59355 9.82357 4.32306 10.4695 4.12486 11.148L0.52002 10.1803C0.804491 9.18468 1.20322 8.238 1.69754 7.34961Z" fill="#ED2A23"/>
<path d="M22.9192 11.148C22.7187 10.4695 22.4482 9.82357 22.1147 9.21499L25.3465 7.34961C25.8409 8.238 26.2372 9.18468 26.524 10.1803L22.9192 11.148Z" fill="#ED2A23"/>
<path d="M16.796 0.783494L15.8306 4.38835C15.1614 4.22746 14.4689 4.13419 13.7554 4.11553V0.384766C14.8023 0.403419 15.819 0.540994 16.796 0.783494Z" fill="#ED2A23"/>
<path d="M20.0787 2.08182L18.2133 5.3136C17.6047 4.98016 16.9588 4.70968 16.2803 4.50915L17.2456 0.904297C18.2413 1.1911 19.1903 1.58749 20.0787 2.08182Z" fill="#ED2A23"/>
<path d="M21.8814 8.81105C21.5153 8.2118 21.0886 7.65685 20.606 7.15086L23.2431 4.51367C23.9543 5.2505 24.5816 6.06427 25.1132 6.94567L21.8814 8.81105Z" fill="#ED2A23"/>
<path d="M20.2769 6.82266C19.7709 6.34 19.216 5.91329 18.6167 5.54721L20.4821 2.31543C21.3635 2.84706 22.1773 3.4743 22.9118 4.18548L20.2769 6.82266Z" fill="#ED2A23"/>
<path d="M10.761 4.51013C10.0848 4.71066 9.43661 4.98114 8.82803 5.31458L6.96265 2.0828C7.85104 1.58847 8.80005 1.19208 9.7957 0.905273L10.761 4.51013Z" fill="#ED2A23"/>
<path d="M4.00358 11.5982C3.84036 12.265 3.74709 12.9599 3.73077 13.6734H0C0.0186538 12.6264 0.153896 11.6098 0.398728 10.6328L4.00358 11.5982Z" fill="#ED2A23"/>
<path d="M6.4358 7.15184C5.95547 7.65782 5.52644 8.21277 5.16035 8.81203L1.93091 6.94664C2.46021 6.06525 3.08977 5.25148 3.80095 4.51465L6.4358 7.15184Z" fill="#ED2A23"/>
<path d="M8.42445 5.54721C7.82752 5.91329 7.27024 6.34 6.76658 6.82266L4.12939 4.18548C4.86389 3.4743 5.68 2.84706 6.55906 2.31543L8.42445 5.54721Z" fill="#ED2A23"/>
<path d="M13.2885 4.11553C12.575 4.13419 11.8801 4.22746 11.2133 4.38835L10.2456 0.783494C11.2226 0.540994 12.2416 0.403419 13.2885 0.384766V4.11553Z" fill="#ED2A23"/>
<path d="M23.3108 13.6734C23.2944 12.9599 23.2012 12.265 23.0403 11.5982L26.6428 10.6328C26.8876 11.6098 27.0252 12.6264 27.0415 13.6734H23.3108Z" fill="#ED2A23"/>
<path d="M12.2282 13.1466C12.641 12.4331 13.5527 12.1882 14.2685 12.6009C14.982 13.0137 15.2269 13.9254 14.8141 14.6389C14.4014 15.3524 13.4897 15.5972 12.7762 15.1845C12.0604 14.7741 11.8179 13.8601 12.2282 13.1466Z" fill="white"/>
<path d="M13.7883 15.3618L22.868 13.8928L13.7883 12.4238L13.5225 13.8928L13.7883 15.3618Z" fill="white"/>
</svg>
