<svg width="12" height="12" viewBox="0 0 12 12" fill="none" xmlns="http://www.w3.org/2000/svg">
<path d="M6.00049 10.9995C3.23906 10.9995 1.00049 8.76091 1.00049 5.99951C1.00049 3.23809 3.23906 0.999512 6.00049 0.999512C8.76189 0.999512 11.0005 3.23809 11.0005 5.99951C11.0005 8.76091 8.76189 10.9995 6.00049 10.9995ZM6.00049 9.99951C8.20964 9.99951 10.0005 8.20866 10.0005 5.99951C10.0005 3.79037 8.20964 1.99951 6.00049 1.99951C3.79135 1.99951 2.00049 3.79037 2.00049 5.99951C2.00049 8.20866 3.79135 9.99951 6.00049 9.99951ZM5.50049 7.49951H6.50049V8.49951H5.50049V7.49951ZM5.50049 3.49951H6.50049V6.49951H5.50049V3.49951Z" fill="#D5D5D5" fill-opacity="0.8"/>
</svg>
