<svg width="104" height="104" viewBox="0 0 104 104" fill="none" xmlns="http://www.w3.org/2000/svg">
<rect x="0.5" y="0.388672" width="103" height="103" rx="51.5" fill="#084FAA" fill-opacity="0.1"/>
<rect x="17.6667" y="17.5557" width="68.6667" height="68.6667" rx="34.3333" fill="#084FAA"/>
<path d="M52.0733 55.5095C47.3894 57.9892 41.6152 57.1394 37.8903 53.379C33.0298 48.4405 33.4367 40.4802 38.7267 36.0378C42.0499 33.2642 46.7296 32.52 50.7536 34.076C51.2359 34.2714 51.7106 34.4894 52.1778 34.7299C51.7558 34.5194 51.3187 34.3391 50.8666 34.1887C47.7016 33.0612 44.0619 33.5122 41.236 35.3388C36.2173 38.5409 34.4992 45.0579 37.1668 50.3347C39.9069 55.8013 46.5299 58.2184 52.0695 55.5073C52.0708 55.508 52.072 55.5088 52.0733 55.5095Z" fill="url(#paint0_linear_2466_696)"/>
<path d="M52.0801 55.5135C49.4057 57.1341 46.0597 57.6089 43.0446 56.8291C39.0658 55.8595 35.7426 52.725 34.4992 48.8464C32.3064 42.0587 36.4208 34.8201 43.4289 33.2867C44.1976 33.1063 44.9888 33.0161 45.7801 32.9935C45.7862 32.9934 45.7924 32.9933 45.7986 32.9932C45.7206 32.9919 45.6424 32.9912 45.5641 32.9912C38.4526 32.9912 32.6875 38.4423 32.6875 45.1665C32.6875 51.8907 38.4526 57.3418 45.5641 57.3418C47.9986 57.3418 50.2755 56.703 52.217 55.5929C52.1712 55.5667 52.1255 55.5402 52.0801 55.5135Z" fill="url(#paint1_linear_2466_696)"/>
<path d="M51.9185 34.5746C52.0189 34.6285 52.1184 34.6837 52.217 34.7401C52.0496 34.8358 51.8847 34.935 51.7224 35.0376C51.8717 34.9318 52.0235 34.8292 52.1778 34.7299C52.0921 34.677 52.0057 34.6252 51.9185 34.5746Z" fill="url(#paint2_linear_2466_696)"/>
<path d="M50.2478 54.2095C48.3701 52.7021 46.9567 50.5847 46.3226 48.26C44.8306 43.0284 47.2721 37.1879 52.1778 34.7299C49.1485 33.422 45.5992 33.5348 42.6829 3{positionManager.borrowApy}31C36.6694 38.0674 34.6574 45.6668 38.3197 51.2818C41.2809 55.8243 47.0692 57.5912 52.0619 55.5028C52.0596 55.5014 52.0573 55.5001 52.055 55.4987C47.4534 57.1571 42.4107 55.3045 39.7443 51.2366C37.054 47.155 37.3479 41.6528 40.5129 37.9094C42.0954 36.0152 44.3787 34.6622 46.8202 34.2563C48.6062 33.9406 50.5049 34.0985 52.1778 34.7299C50.1432 34.121 47.9732 34.1661 45.9612 34.775C44.7856 35.1583 43.6553 35.7446 42.6832 36.4888C36.4889 41.3145 37.3027 51.0111 44.243 54.7094C46.6211 55.9508 49.4578 56.2334 52.0447 55.4926C52.0404 55.4901 52.0361 55.4875 52.0317 55.485C48.438 56.2283 44.7533 54.8515 42.4114 52.0259C39.4951 48.5532 39.0882 43.4794 41.4167 39.5782C41.5975 39.2851 41.8462 38.9017 42.0497 38.6311C42.2757 38.3154 42.5244 38.0222 42.7957 37.7291C42.8578 37.6517 42.9731 37.5424 43.0759 37.4451C43.1228 37.4006 43.1672 37.3585 43.2026 37.3232C43.2704 37.2555 43.3665 37.171 43.4626 37.0864C43.5587 37.0019 43.6547 36.9173 43.7226 36.8496C43.7602 36.8196 43.8003 36.7871 43.8405 36.7546C43.9208 36.6894 44.0014 36.6241 44.0617 36.579L44.3104 36.3986L44.4234 36.3084C44.6721 36.128 44.9886 35.9251 45.2598 35.7672C47.3397 34.6172 49.8719 34.2112 52.1778 34.7299C49.8493 34.4142 47.4527 34.8878 45.4633 36.1055C45.2146 36.2633 44.9207 36.4663 44.6721 36.6467C44.6042 36.6918 44.4008 36.8496 44.333 36.9173C44.2199 37.0075 44.0391 37.1653 43.926 37.2781C39.269 41.495 39.3594 49.0042 44.1295 53.1083C46.2588 54.9668 49.1937 55.8268 52.0153 55.4752C52.0056 55.4694 51.9959 55.4636 51.9863 55.4578C47.8593 55.509 44.197 52.9141 42.6832 49.0944C41.1233 45.2609 41.9597 40.6606 44.8986 37.7066C45.8255 36.7369 46.9785 35.9476 48.2444 35.4515C49.4878 34.9554 50.844 34.6848 52.1778 34.7299C46.707 35.0005 42.4345 39.691 42.4797 45.103C42.4574 50.4872 46.55 55.0591 51.9572 55.4404C51.9271 55.4222 51.8971 55.404 51.8672 55.3856C50.0846 54.9654 48.4172 54.0503 47.1136 52.7926C47.0119 52.6912 46.9101 52.5784 46.8084 52.4657C46.7067 52.3529 46.6049 52.2402 46.5032 52.1387C46.4663 52.0945 46.4197 52.0358 46.3697 51.9729L46.3694 51.9725C46.2666 51.8431 46.1497 51.6958 46.0737 51.62C46.0084 51.5029 45.9281 51.3932 45.8501 51.2868C45.793 51.2088 45.7372 51.1325 45.6894 51.0563C45.6442 50.9886 45.5764 50.8816 45.5086 50.7745C45.4408 50.6674 45.3729 50.5602 45.3277 50.4925C45.2938 50.4249 45.2316 50.3065 45.1694 50.1881C45.1072 50.0697 45.0451 49.9513 45.0112 49.8837C44.9773 49.816 44.9264 49.6976 44.8755 49.5792C44.8247 49.4608 44.7738 49.3425 44.7399 49.2748C44.7173 49.2072 44.6664 49.0831 44.6155 48.9591C44.5647 48.8351 44.5138 48.711 44.4912 48.6434C43.9486 47.0874 43.7904 45.3962 43.9939 43.75C44.0843 43.0058 44.2651 42.2617 44.4912 41.5401C44.5002 41.5175 44.5138 41.4842 44.5301 41.4442C44.5952 41.284 44.7037 41.0169 44.7399 40.9087C44.7851 40.7734 44.9433 40.4351 45.0112 40.2998C45.0451 40.2434 45.1072 40.1251 45.1694 40.0067C45.2316 39.8883 45.2938 39.7699 45.3277 39.7135C45.3729 39.6346 45.4407 39.5275 45.5085 39.4204C45.5763 39.3132 45.6442 39.2061 45.6894 39.1272C45.7459 39.037 45.8137 38.9468 45.8815 38.8566C45.9493 38.7665 46.0172 38.6762 46.0737 38.586C46.1301 38.5185 46.209 38.423 46.2879 38.3273L46.2885 38.3267L46.2891 38.3259L46.2895 38.3255C46.3682 38.23 46.4469 38.1347 46.5032 38.0673C46.5843 37.9595 46.6815 37.8597 46.7756 37.7632L46.7759 37.7629C46.8391 37.698 46.9009 37.6346 46.9554 37.5712C47.0232 37.5036 47.1136 37.4191 47.204 37.3345C47.2944 37.25 47.3849 37.1653 47.4527 37.0977C47.4865 37.0724 47.5519 37.0156 47.6265 36.9508C47.7514 36.8423 47.9019 36.7116 47.9727 36.6692C48.4926 36.2633 49.0804 35.9025 49.6682 35.6094C50.4594 35.2035 51.3188 34.9103 52.1778 34.7299C50.7988 35.1809 49.4647 35.88 48.357 36.8045L48.1761 36.9398L48.0179 37.0751L47.7014 37.3683L47.4075 37.684C47.204 37.8869 47.0232 38.1124 46.8423 38.3379C46.7293 38.4733 46.5484 38.7213 46.458 38.8566C46.4015 38.9468 46.3393 39.037 46.2771 39.1272C46.215 39.2174 46.1528 39.3076 46.0963 39.3978L45.8702 39.7586C45.825 39.8714 45.7346 40.0292 45.6668 40.142L45.4859 40.5253C45.452 40.593 45.4011 40.7057 45.3503 40.8185C45.2994 40.9312 45.2485 41.044 45.2146 41.1116C44.9433 41.8558 44.7173 42.6225 44.6042 43.3892C44.6042 43.443 44.5939 43.5122 44.5832 43.5846C44.5714 43.6639 44.559 43.7469 44.559 43.8177L44.5138 44.2461C44.5025 44.3701 44.4969 44.5223 44.4912 44.6746C44.4855 44.8268 44.4799 44.979 44.4686 45.103C44.4799 45.227 44.4855 45.3793 44.4912 45.5315C44.4969 45.6837 44.5025 45.8359 44.5138 45.9599C44.5138 45.9938 44.5251 46.1065 44.5364 46.2193C44.5477 46.332 44.559 46.4448 44.559 46.4786C44.5816 46.5462 44.6042 46.7266 44.6042 46.7943C44.6947 47.3806 44.8529 47.9218 45.0112 48.463C45.0564 48.5758 45.1072 48.7223 45.1581 48.8689C45.209 49.0155 45.2598 49.1621 45.3051 49.2748L45.6668 50.0415C45.712 50.1543 45.8024 50.3347 45.8702 50.4249L46.0963 50.8082C46.2093 50.9886 46.3224 51.169 46.458 51.3494C46.5484 51.4847 46.7293 51.7328 46.8423 51.8681L47.2493 52.3416C47.32 52.4122 47.4092 52.5074 47.4945 52.5982L47.4949 52.5988L47.4953 52.5992C47.5731 52.6821 47.6475 52.7615 47.7014 52.8152C47.7918 52.8828 48.108 53.1983 48.176 53.2661C49.2367 54.1613 50.4449 54.8547 51.7502 55.3129C51.2205 54.98 50.7184 54.6109 50.2478 54.2095Z" fill="url(#paint3_linear_2466_696)"/>
<path d="M51.9267 48.2678C56.6106 45.7881 62.3848 46.638 66.1097 50.3984C70.9702 55.3369 70.5633 63.2971 65.2733 67.7395C61.9501 70.5132 57.2704 71.2574 53.2464 69.7014C52.7641 69.506 52.2894 69.288 51.8222 69.0474C52.2442 69.2579 52.6813 69.4383 53.1334 69.5886C56.2984 70.7161 59.9381 70.2651 62.764 68.4386C67.7827 65.2364 69.5008 58.7194 66.8332 53.4427C64.0931 47.9761 57.4701 45.559 51.9305 48.2701C51.9292 48.2693 51.928 48.2686 51.9267 48.2678Z" fill="url(#paint4_linear_2466_696)"/>
<path d="M51.9199 48.2638C54.5943 46.6433 57.9403 46.1685 60.9554 46.9482C64.9342 47.9179 68.2574 51.0523 69.5008 54.931C71.6936 61.7186 67.5792 68.9572 60.5711 70.4906C59.8024 70.671 59.0112 70.7612 58.2199 70.7838C58.2138 70.7839 58.2076 70.784 58.2014 70.7842C58.2794 70.7855 58.3576 70.7861 58.4359 70.7861C65.5474 70.7861 71.3125 65.3351 71.3125 58.6108C71.3125 51.8866 65.5474 46.4355 58.4359 46.4355C56.0014 46.4355 53.7245 47.0744 51.783 48.1844C51.8288 48.2106 51.8745 48.2371 51.9199 48.2638Z" fill="url(#paint5_linear_2466_696)"/>
<path d="M52.0815 69.2028C51.9811 69.1488 51.8816 69.0936 51.783 69.0372C51.9504 68.9415 52.1153 68.8423 52.2776 68.7397C52.1283 68.8455 51.9765 68.9482 51.8222 69.0474C51.9079 69.1004 51.9943 69.1522 52.0815 69.2028Z" fill="url(#paint6_linear_2466_696)"/>
<path d="M53.7522 49.5679C55.6299 51.0753 57.0433 53.1926 57.6774 55.5173C59.1694 60.749 56.7279 66.5895 51.8222 69.0474C54.8515 70.3554 58.4008 70.2426 61.3171 68.7543C67.3306 65.71 69.3426 58.1106 65.6803 52.4956C62.7191 47.9531 56.9308 46.1862 51.9381 48.2745C51.9404 48.2759 51.9427 48.2773 51.945 48.2786C56.5466 46.6203 61.5893 48.4728 64.2557 52.5407C66.946 56.6223 66.6521 62.1246 63.4871 65.8679C61.9046 67.7621 59.6213 69.1151 57.1798 69.521C55.3938 69.8367 53.4951 69.6789 51.8222 69.0474C53.8568 69.6563 56.0268 69.6112 58.0388 69.0024C59.2144 68.619 60.3447 68.0327 61.3168 67.2886C67.5111 62.4628 66.6973 52.7662 59.757 49.068C57.3789 47.8265 54.5422 47.544 51.9553 48.2847C51.9596 48.2873 51.9639 48.2898 51.9683 48.2924C55.562 47.549 59.2467 48.9258 61.5886 51.7514C64.5049 55.2241 64.9118 60.2979 62.5833 64.1991C62.4025 64.4923 62.1538 64.8756 61.9503 65.1462C61.7243 65.462 61.4756 65.7551 61.2043 66.0483C61.1422 66.1256 61.0269 66.2349 60.9241 66.3323C60.8772 66.3768 60.8328 66.4188 60.7974 66.4542C60.7296 66.5218 60.6335 66.6064 60.5374 66.6909C60.4413 66.7755 60.3453 66.8601 60.2774 66.9277C60.2398 66.9577 60.1997 66.9903 60.1595 67.0228C60.0792 67.0879 59.9986 67.1532 59.9383 67.1983L59.6896 67.3787L59.5766 67.4689C59.3279 67.6493 59.0114 67.8523 58.7402 68.0101C56.6603 69.1602 54.1281 69.5661 51.8222 69.0474C54.1507 69.3632 56.5473 68.8896 58.5367 67.6719C58.7854 67.514 59.0793 67.3111 59.3279 67.1307C59.3958 67.0856 59.5992 66.9277 59.667 66.8601C59.7801 66.7699 59.9609 66.612 60.074 66.4993C64.731 62.2824 64.6406 54.7731 59.8705 50.669C57.7412 48.8105 54.8063 47.9506 51.9847 48.3022C51.9944 48.3079 52.0041 48.3137 52.0137 48.3195C56.1407 48.2684 59.803 50.8633 61.3168 54.6829C62.8767 58.5165 62.0403 63.1167 59.1014 66.0708C58.1745 67.0404 57.0215 67.8297 55.7556 68.3258C54.5122 68.8219 53.156 69.0925 51.8222 69.0474C57.293 68.7768 61.5655 64.0864 61.5203 58.6743C61.5426 53.2901 57.45 48.7182 52.0428 48.337C52.0729 48.3551 52.1029 48.3734 52.1328 48.3918C53.9154 48.8119 55.5828 49.727 56.8864 50.9847C56.9881 51.0862 57.0899 51.1989 57.1916 51.3117C57.2933 51.4244 57.3951 51.5372 57.4968 51.6387C57.5337 51.6829 57.5803 51.7416 57.6303 51.8045L57.6306 51.8048C57.7334 51.9343 57.8503 52.0815 57.9263 52.1573C57.9916 52.2745 58.0719 52.3841 58.1499 52.4906C58.207 52.5685 58.2628 52.6448 58.3106 52.7211C58.3558 52.7887 58.4236 52.8958 58.4914 53.0028C58.5592 53.11 58.6271 53.2172 58.6723 53.2848C58.7062 53.3525 58.7684 53.4709 58.8306 53.5893C58.8928 53.7076 58.9549 53.826 58.9888 53.8937C59.0227 53.9613 59.0736 54.0797 59.1245 54.1981C59.1753 54.3165 59.2262 54.4349 59.2601 54.5025C59.2827 54.5702 59.3336 54.6942 59.3845 54.8182C59.4353 54.9422 59.4862 55.0663 59.5088 55.1339C60.0514 56.6899 60.2096 58.3812 60.0061 60.0273C59.9157 60.7715 59.7349 61.5157 59.5088 62.2373C59.4998 62.2598 59.4862 62.2931 59.4699 62.3331C59.4048 62.4933 59.2963 62.7604 59.2601 62.8687C59.2149 63.004 59.0567 63.3422 58.9888 63.4775C58.9549 63.5339 58.8928 63.6523 58.8306 63.7707C58.7684 63.8891 58.7062 64.0075 58.6723 64.0638C58.6271 64.1428 58.5593 64.2499 58.4915 64.357C58.4237 64.4641 58.3558 64.5712 58.3106 64.6501C58.2541 64.7403 58.1863 64.8305 58.1185 64.9207C58.0507 65.0109 57.9828 65.1012 57.9263 65.1913C57.8699 65.2588 57.791 65.3544 57.7121 65.45L57.7115 65.4507L57.7109 65.4515L57.7105 65.4519C57.6318 65.5473 57.5531 65.6426 57.4968 65.71C57.4157 65.8178 57.3185 65.9176 57.2244 66.0141L57.2241 66.0145C57.1609 66.0793 57.0991 66.1427 57.0446 66.2061C56.9768 66.2737 56.8864 66.3583 56.796 66.4428C56.7056 66.5274 56.6151 66.612 56.5473 66.6797C56.5135 66.705 56.4481 66.7618 56.3735 66.8265C56.2486 66.935 56.0981 67.0658 56.0273 67.1081C55.5074 67.514 54.9196 67.8748 54.3318 68.168C53.5406 68.5739 52.6812 68.867 51.8222 69.0474C53.2012 68.5964 54.5353 67.8974 55.643 66.9728L55.8239 66.8375L55.9821 66.7022L56.2986 66.4091L56.5925 66.0934C56.796 65.8904 56.9768 65.6649 57.1577 65.4394C57.2707 65.3041 57.4516 65.056 57.542 64.9207C57.5985 64.8305 57.6607 64.7403 57.7229 64.6501C57.785 64.5599 57.8472 64.4697 57.9037 64.3795L58.1298 64.0187C58.175 63.906 58.2654 63.7481 58.3332 63.6354L58.5141 63.252C58.548 63.1844 58.5989 63.0716 58.6497 62.9589C58.7006 62.8461 58.7515 62.7334 58.7854 62.6657C59.0567 61.9216 59.2827 61.1549 59.3958 60.3881C59.3958 60.3343 59.4061 60.2651 59.4168 60.1928C59.4286 60.1135 59.441 60.0304 59.441 59.9597L59.4862 59.5312C59.4975 59.4072 59.5031 59.255 59.5088 59.1028C59.5145 58.9506 59.5201 58.7984 59.5314 58.6743C59.5201 58.5503 59.5145 58.3981 59.5088 58.2459C59.5031 58.0937 59.4975 57.9414 59.4862 57.8174C59.4862 57.7836 59.4749 57.6708 59.4636 57.5581C59.4523 57.4453 59.441 57.3326 59.441 57.2988C59.4184 57.2311 59.3958 57.0507 59.3958 56.9831C59.3053 56.3968 59.1471 55.8555 58.9888 55.3143C58.9436 55.2016 58.8928 55.055 58.8419 54.9084C58.791 54.7619 58.7402 54.6153 58.6949 54.5025L58.3332 53.7358C58.288 53.6231 58.1976 53.4427 58.1298 53.3525L57.9037 52.9691C57.7907 52.7887 57.6776 52.6083 57.542 52.4279C57.4516 52.2926 57.2707 52.0446 57.1577 51.9093L56.7507 51.4357C56.68 51.3651 56.5908 51.27 56.5055 51.1791L56.5051 51.1786L56.5047 51.1782C56.4269 51.0952 56.3525 51.0159 56.2986 50.9621C56.2082 50.8945 55.892 50.5791 55.824 50.5112C54.7633 49.616 53.5551 48.9226 52.2498 48.4644C52.7795 48.7974 53.2816 49.1664 53.7522 49.5679Z" fill="url(#paint7_linear_2466_696)"/>
<path d="M48.5412 51.7466C46.0336 47.1148 46.893 41.4047 50.6957 37.7211C55.6897 32.9146 63.7393 33.317 68.2317 38.5483C71.0365 41.8346 71.789 46.4622 70.2156 50.4415C70.0179 50.9185 69.7975 51.3879 69.5543 51.8499C69.7671 51.4326 69.9495 51.0004 70.1015 50.5533C71.2417 47.4235 70.7856 43.8242 68.9386 41.0297C65.7004 36.0667 59.1102 34.3677 53.7742 37.0057C48.2462 39.7154 45.8019 46.2648 48.5434 51.7428C48.5427 51.7441 48.5419 51.7453 48.5412 51.7466Z" fill="url(#paint8_linear_2466_696)"/>
<path d="M48.5372 51.7533C46.8984 49.1087 46.4182 45.7998 47.2067 42.8182C48.1873 38.8836 51.357 35.5973 55.2792 34.3678C62.1431 32.1993 69.463 36.268 71.0137 43.1983C71.1961 43.9584 71.2873 44.7408 71.3101 45.5233C71.3103 45.5294 71.3104 45.5355 71.3105 45.5416C71.3118 45.4645 71.3125 45.3872 71.3125 45.3097C71.3125 38.2773 65.8002 32.5762 59.0004 32.5762C52.2006 32.5762 46.6883 38.2773 46.6883 45.3097C46.6883 47.7172 47.3343 49.9687 48.4568 51.8887C48.4833 51.8434 48.5101 51.7982 48.5372 51.7533Z" fill="url(#paint9_linear_2466_696)"/>
<path d="M69.7114 51.5935C69.6568 51.6928 69.601 51.7912 69.544 51.8887C69.4472 51.7232 69.3469 51.5601 69.2431 51.3996C69.3501 51.5472 69.4539 51.6974 69.5543 51.8499C69.6078 51.7652 69.6602 51.6797 69.7114 51.5935Z" fill="url(#paint10_linear_2466_696)"/>
<path d="M49.8558 49.9413C51.3802 48.0845 53.5213 46.6868 55.8721 46.0598C61.1626 44.5843 67.0687 46.9988 69.5543 51.8499C70.8769 48.8543 70.7628 45.3444 69.2578 42.4605C66.1793 36.5139 58.4945 34.5242 52.8164 38.1458C48.2229 41.0741 46.4362 46.7981 48.548 51.7353C48.5493 51.733 48.5507 51.7307 48.5521 51.7284C46.8751 47.178 48.7485 42.1914 52.8621 39.5545C56.9895 36.8942 62.5536 37.1848 66.339 40.3146C68.2545 41.8795 69.6227 44.1374 70.0332 46.5519C70.3524 48.318 70.1928 50.1956 69.5543 51.8499C70.17 49.8379 70.1244 47.692 69.5087 45.7023C69.121 44.5399 68.5281 43.4221 67.7756 42.4608C62.8957 36.3353 53.0901 37.1401 49.3503 44.0033C48.0949 46.355 47.8092 49.1601 48.5582 51.7183C48.5608 51.714 48.5634 51.7097 48.566 51.7055C47.8143 48.1516 49.2066 44.508 52.0639 42.192C55.5757 39.3081 60.7065 38.9057 64.6515 41.2083C64.9479 41.3872 65.3356 41.6331 65.6092 41.8343C65.9285 42.0579 66.2249 42.3038 66.5214 42.5721C66.5996 42.6334 66.7101 42.7475 66.8086 42.8491C66.8536 42.8955 66.8961 42.9394 66.9319 42.9745C67.0003 43.0415 67.0858 43.1365 67.1713 43.2315C67.2568 43.3265 67.3423 43.4216 67.4107 43.4886C67.4411 43.5258 67.474 43.5655 67.5069 43.6052C67.5727 43.6847 67.6388 43.7644 67.6844 43.824L67.8668 44.0699L67.958 44.1817C68.1404 44.4276 68.3457 44.7405 68.5053 45.0088C69.6683 47.0655 70.0788 49.5697 69.5543 51.8499C69.8735 49.5473 69.3946 47.1773 68.1632 45.21C68.0036 44.9641 67.7984 44.6735 67.616 44.4276C67.5704 44.3605 67.4107 44.1593 67.3423 44.0922C67.2511 43.9805 67.0915 43.8016 66.9775 43.6898C62.7132 39.0846 55.1196 39.174 50.9693 43.891C49.09 45.9967 48.2204 48.8989 48.5759 51.6892C48.5818 51.6796 48.5876 51.6701 48.5935 51.6605C48.5417 47.5794 51.1658 43.9578 5{positionManager.borrowApy}84 42.4608C58.905 40.9182 63.5569 41.7454 66.5442 44.6516C67.5247 45.5682 68.3229 46.7083 68.8245 47.9603C69.3262 49.1898 69.5999 50.531 69.5543 51.8499C69.2806 46.4399 64.5375 42.2148 59.0646 42.2596C53.6199 42.2375 48.9966 46.2847 48.6111 51.6318C48.6295 51.602 48.6479 51.5723 48.6665 51.5427C49.0914 49.78 50.0168 48.1311 51.2886 46.842C51.3912 46.7414 51.5052 46.6408 51.6192 46.5402C51.7333 46.4396 51.8473 46.339 51.9499 46.2384C51.9946 46.2018 52.054 46.1557 52.1176 46.1063L52.1179 46.106C52.2488 46.0044 52.3977 45.8888 52.4744 45.8136C52.5928 45.7491 52.7037 45.6697 52.8114 45.5926C52.8902 45.5361 52.9673 45.4808 53.0445 45.4336C53.1128 45.3889 53.2211 45.3218 53.3294 45.2548C53.4377 45.1877 53.5461 45.1206 53.6145 45.0759C53.683 45.0424 53.8027 44.9809 53.9224 44.9194C54.0421 44.8579 54.1618 44.7964 54.2302 44.7629C54.2987 44.7294 54.4184 44.6791 54.5381 44.6288C54.6578 44.5785 54.7775 44.5282 54.8459 44.4946C54.9144 44.4723 55.0398 44.422 55.1652 44.3717C55.2906 44.3214 55.416 44.2711 55.4844 44.2487C57.0579 43.7122 58.7682 43.5557 60.4328 43.7569C61.1853 43.8463 61.9379 44.0252 62.6676 44.2487C62.6904 44.2577 62.7241 44.2711 62.7645 44.2871C62.9265 44.3515 63.1966 44.4589 63.3061 44.4946C63.4429 44.5393 63.785 44.6958 63.9218 44.7629C63.9788 44.7964 64.0985 44.8579 64.2182 44.9194C64.3379 44.9809 64.4577 45.0424 64.5147 45.0759C64.5945 45.1206 64.7028 45.1877 64.8111 45.2547C64.9194 45.3218 6{positionManager.borrowApy}77 45.3889 65.1076 45.4336C65.1988 45.4895 65.29 45.5565 65.3812 45.6236C65.4724 45.6906 65.5636 45.7577 65.6548 45.8136C65.7231 45.8694 65.8197 45.9474 65.9164 46.0255L65.9171 46.026L65.9179 46.0267L65.9183 46.027C66.0148 46.1049 66.1112 46.1827 66.1793 46.2384C66.2884 46.3186 66.3893 46.4147 66.4869 46.5077L66.4872 46.5081C66.5528 46.5705 66.6169 46.6316 66.681 46.6855C66.7494 46.7525 66.8349 46.8419 66.9204 46.9314C67.0059 47.0208 67.0915 47.1103 67.1599 47.1773C67.1855 47.2108 67.2429 47.2754 67.3084 47.3492C67.4181 47.4727 67.5503 47.6215 67.5932 47.6915C68.0036 48.2057 68.3685 48.7869 68.6649 49.3682C69.0754 50.1506 69.3718 51.0004 69.5543 51.8499C69.0982 50.4863 68.3913 49.167 67.4563 48.0716L67.3195 47.8927L67.1827 47.7362L66.8862 47.4232L66.567 47.1326C66.3618 46.9314 66.1337 46.7526 65.9057 46.5737C65.7689 46.4619 65.518 46.2831 65.3812 46.1937C65.29 46.1378 65.1988 46.0763 65.1076 46.0148C65.0163 45.9533 64.9251 45.8919 64.8339 45.836L64.4691 45.6124C64.355 45.5677 64.1954 45.4783 64.0814 45.4112L63.6937 45.2324C63.6253 45.1988 63.5113 45.1485 63.3973 45.0982C63.2833 45.0479 63.1693 44.9976 63.1008 44.9641C62.3483 44.6958 61.573 44.4723 60.7977 44.3605C60.7433 44.3605 60.6733 44.3503 60.6001 44.3397C60.5199 44.328 60.4359 44.3158 60.3644 44.3158L59.9311 44.2711C59.8057 44.2599 59.6518 44.2543 59.4979 44.2487C59.344 44.2431 59.19 44.2375 59.0646 44.2264C58.9392 44.2375 58.7853 44.2431 58.6313 44.2487C58.4774 44.2543 58.3235 44.2599 58.1981 44.2711C58.1639 44.2711 58.0498 44.2823 57.9358 44.2934C57.8218 44.3046 57.7078 44.3158 57.6736 44.3158C57.6052 44.3381 57.4227 44.3605 57.3543 44.3605C56.7614 44.4499 56.2142 44.6064 55.6669 44.7629C55.5529 44.8076 55.4046 44.8579 55.2564 44.9082C55.1082 44.9585 54.96 45.0088 54.8459 45.0535L54.0706 45.4112C53.9566 45.4559 53.7742 45.5454 53.683 45.6124L53.2953 45.836C53.1129 45.9478 52.9304 46.0595 52.748 46.1937C52.6112 46.2831 52.3603 46.4619 52.2235 46.5737L51.7447 46.9761C51.6733 47.0461 51.5771 47.1343 51.4852 47.2186L51.4847 47.2191L51.4842 47.2195C51.4003 47.2964 51.3201 47.37 51.2658 47.4232C51.1974 47.5126 50.8784 47.8254 50.8098 47.8926C49.9045 48.9415 49.2034 50.1363 48.74 51.4271C49.0767 50.9033 49.4499 50.4067 49.8558 49.9413Z" fill="url(#paint11_linear_2466_696)"/>
<path d="M55.4588 52.0308C57.9664 56.6626 57.107 62.3726 53.3043 66.0562C48.3103 70.8627 40.2607 70.4603 35.7683 65.2291C32.9635 61.9428 32.211 57.3151 33.7844 53.3358C33.9821 52.8589 34.2025 52.3894 34.4457 51.9274C34.2329 52.3447 34.0505 52.777 33.8985 53.2241C32.7583 56.3539 33.2144 59.9532 35.0614 62.7476C38.2996 67.7106 44.8898 69.4096 50.2258 66.7717C55.7538 64.062 58.1981 57.5126 55.4566 52.0345C55.4573 52.0333 55.4581 52.032 55.4588 52.0308Z" fill="url(#paint12_linear_2466_696)"/>
<path d="M55.4628 52.0241C57.1016 54.6687 57.5818 57.9775 56.7933 60.9591C55.8127 64.8937 52.643 68.18 48.7208 69.4096C41.8569 71.5781 34.537 67.5093 32.9863 60.5791C32.8039 59.819 32.7127 59.0365 32.6899 58.2541C32.6897 58.248 32.6896 58.2419 32.6895 58.2358C32.6882 58.3129 32.6875 58.3902 32.6875 58.4676C32.6875 65.5001 38.1998 71.2012 44.9996 71.2012C51.7994 71.2012 57.3117 65.5001 57.3117 58.4676C57.3117 56.0602 56.6657 53.8086 55.5432 51.8886C55.5167 51.934 55.4899 51.9791 55.4628 52.0241Z" fill="url(#paint13_linear_2466_696)"/>
<path d="M34.2886 52.1838C34.3432 52.0846 34.399 51.9862 34.456 51.8886C34.5528 52.0542 34.6531 52.2173 34.7569 52.3778C34.6499 52.2301 34.5461 52.08 34.4457 51.9274C34.3922 52.0122 34.3398 52.0976 34.2886 52.1838Z" fill="url(#paint14_linear_2466_696)"/>
<path d="M54.1442 53.836C52.6198 55.6928 50.4787 57.0905 48.1279 57.7175C42.8374 59.193 36.9313 56.7786 34.4457 51.9274C33.1231 54.9231 33.2372 58.433 34.7422 61.3169C37.8207 67.2635 45.5055 69.2531 51.1836 65.6315C55.7771 62.7033 57.5638 56.9793 55.452 52.042C55.4507 52.0443 55.4493 52.0466 55.4479 52.0489C57.1249 56.5994 55.2515 61.586 51.1379 64.2228C47.0105 66.8831 41.4464 66.5925 37.661 63.4627C35.7455 61.8978 34.3773 59.6399 33.9668 57.2255C33.6476 55.4594 33.8072 53.5817 34.4457 51.9274C33.83 53.9394 33.8756 56.0853 34.4913 58.075C34.879 59.2375 35.4719 60.3553 36.2244 61.3166C41.1043 67.442 50.9099 66.6372 54.6497 59.774C55.9051 57.4224 56.1908 54.6172 55.4418 52.059C55.4392 52.0633 55.4366 52.0676 55.434 52.0719C56.1857 55.6257 54.7934 59.2694 51.9361 61.5853C48.4243 64.4692 43.2935 64.8716 39.3485 62.569C39.0521 62.3902 38.6644 62.1442 38.3908 61.943C38.0715 61.7195 37.7751 61.4736 37.4786 61.2053C37.4004 61.1439 37.2899 61.0299 37.1914 60.9282C37.1464 60.8818 37.1039 60.8379 37.0681 60.8029C36.9997 60.7358 36.9142 60.6408 36.8287 60.5458C36.7432 60.4508 36.6577 60.3558 36.5893 60.2887C36.5589 60.2515 36.526 60.2118 36.4931 60.1721C36.4273 60.0927 36.3612 60.013 36.3156 59.9534L36.1332 59.7075L36.042 59.5957C35.8596 59.3498 35.6543 59.0368 35.4947 58.7685C34.3317 56.7118 33.9212 54.2077 34.4457 51.9274C34.1265 54.23 34.6054 56.6 35.8368 58.5673C35.9964 58.8132 36.2016 59.1039 36.384 59.3498C36.4296 59.4168 36.5893 59.618 36.6577 59.6851C36.7489 59.7969 36.9085 59.9757 37.0225 60.0875C41.2868 64.6928 48.8804 64.6034 53.0307 59.8863C54.91 57.7806 55.7796 54.8784 55.4241 52.0881C55.4182 52.0977 55.4124 52.1073 55.4065 52.1168C55.4583 56.198 52.8342 59.8195 48.9716 61.3166C45.095 62.8591 40.4431 62.032 37.4558 59.1257C36.4753 58.2091 35.6771 57.069 35.1755 55.8171C34.6738 54.5875 34.4001 53.2464 34.4457 51.9274C34.7194 57.3375 39.4625 61.5625 44.9354 61.5178C50.3801 61.5398 55.0034 57.4927 55.3889 52.1456C55.3705 52.1753 55.3521 52.205 55.3335 52.2346C54.9086 53.9974 53.9832 55.6463 52.7114 56.9354C52.6088 57.036 52.4948 57.1366 52.3808 57.2372C52.2667 57.3378 52.1527 57.4384 52.0501 57.539C52.0054 57.5755 51.946 57.6216 51.8824 57.671L51.8821 57.6713C51.7512 57.7729 51.6023 57.8886 51.5256 57.9637C51.4072 58.0282 51.2963 58.1077 51.1886 58.1848C51.1098 58.2413 51.0327 58.2965 50.9555 58.3438C50.8872 58.3885 50.7789 58.4555 50.6706 58.5225C50.5623 58.5896 50.4539 58.6567 50.3855 58.7015C50.317 58.735 50.1973 58.7965 50.0776 58.8579C49.9579 58.9194 49.8382 58.9809 49.7698 59.0144C49.7013 59.048 49.5816 59.0983 49.4619 59.1486C49.3422 59.1989 49.2225 59.2492 49.1541 59.2827C49.0856 59.3051 48.9602 59.3554 48.8348 59.4057C48.7094 59.4559 48.584 59.5063 48.5156 59.5286C46.9421 60.0652 45.2318 60.2216 43.5672 60.0204C42.8147 59.931 42.0621 59.7522 41.3324 59.5286C41.3096 59.5197 41.2759 59.5063 41.2355 59.4902C41.0735 59.4258 40.8034 59.3185 40.6939 59.2827C40.5571 59.238 40.215 59.0815 40.0782 59.0144C40.0212 58.9809 39.9015 58.9194 39.7818 58.8579C39.6621 58.7965 39.5423 58.735 39.4853 58.7015C39.4055 58.6567 39.2972 58.5897 39.1889 58.5226C39.0806 58.4555 38.9723 58.3885 38.8924 58.3438C38.8012 58.2879 38.71 58.2208 38.6188 58.1538C38.5276 58.0867 38.4364 58.0196 38.3452 57.9637C38.2769 57.908 38.1803 57.8299 38.0836 57.7519L38.0829 57.7513L38.0821 57.7507L38.0817 57.7503C37.9852 57.6724 37.8888 57.5946 37.8207 57.539C37.7116 57.4588 37.6107 57.3626 37.5131 57.2696L37.5128 57.2693C37.4472 57.2068 37.3831 57.1457 37.319 57.0918C37.2506 57.0248 37.1651 56.9354 37.0796 56.846C36.9941 56.7566 36.9085 56.6671 36.8401 56.6C36.8145 56.5666 36.7571 56.5019 36.6916 56.4282C36.5819 56.3047 36.4497 56.1558 36.4068 56.0858C35.9964 55.5717 35.6315 54.9904 35.3351 54.4092C34.9246 53.6267 34.6282 52.7769 34.4457 51.9274C34.9018 53.2911 35.6087 54.6104 36.5437 55.7058L36.6805 55.8846L36.8173 56.0411L37.1138 56.3541L37.433 56.6447C37.6382 56.8459 37.8663 57.0248 38.0943 57.2036C38.2311 57.3154 38.482 57.4942 38.6188 57.5837C38.71 57.6396 38.8012 57.701 38.8924 57.7625C38.9837 57.824 39.0749 57.8855 39.1661 57.9414L39.5309 58.1649C39.645 58.2096 39.8046 58.299 39.9186 58.3661L40.3063 58.545C40.3747 58.5785 40.4887 58.6288 40.6027 58.6791C40.7167 58.7294 40.8307 58.7797 40.8992 58.8132C41.6517 59.0815 42.427 59.3051 43.2023 59.4168C43.2567 59.4168 43.3267 59.427 43.3999 59.4377C43.4801 59.4493 43.5641 59.4616 43.6356 59.4616L44.0689 59.5063C44.1943 59.5174 44.3482 59.523 44.5021 59.5286C44.656 59.5342 44.81 59.5398 44.9354 59.551C45.0608 59.5398 45.2147 59.5342 45.3687 59.5286C45.5226 59.523 45.6765 59.5174 45.8019 59.5063C45.8361 59.5063 45.9502 59.4951 46.0642 59.4839C46.1782 59.4727 46.2922 59.4616 46.3264 59.4616C46.3948 59.4392 46.5773 59.4168 46.6457 59.4168C47.2386 59.3274 47.7858 59.1709 48.3331 59.0144C48.4471 58.9697 48.5954 58.9194 48.7436 58.8691C48.8918 58.8188 49.04 58.7685 49.1541 58.7238L49.9294 58.3661C50.0434 58.3214 50.2258 58.232 50.317 58.1649L50.7047 57.9414C50.8871 57.8296 51.0696 57.7178 51.252 57.5837C51.3888 57.4942 51.6397 57.3154 51.7765 57.2036L52.2553 56.8012C52.3267 56.7312 52.4229 56.643 52.5148 56.5587L52.5153 56.5583L52.5158 56.5579C52.5997 56.4809 52.6799 56.4074 52.7342 56.3541C52.8026 56.2647 53.1216 55.952 53.1902 55.8847C54.0955 54.8359 54.7966 53.6411 55.26 52.3503C54.9233 52.8741 54.5501 53.3706 54.1442 53.836Z" fill="url(#paint15_linear_2466_696)"/>
<defs>
<linearGradient id="paint0_linear_2466_696" x1="53.2784" y1="30.0523" x2="53.3489" y2="61.1202" gradientUnits="userSpaceOnUse">
<stop stop-color="white" stop-opacity="0.3"/>
<stop offset="0.493767" stop-color="white"/>
<stop offset="1" stop-color="white" stop-opacity="0.3"/>
</linearGradient>
<linearGradient id="paint1_linear_2466_696" x1="53.2784" y1="30.0523" x2="53.3489" y2="61.1202" gradientUnits="userSpaceOnUse">
<stop stop-color="white" stop-opacity="0.3"/>
<stop offset="0.493767" stop-color="white"/>
<stop offset="1" stop-color="white" stop-opacity="0.3"/>
</linearGradient>
<linearGradient id="paint2_linear_2466_696" x1="53.2784" y1="30.0523" x2="53.3489" y2="61.1202" gradientUnits="userSpaceOnUse">
<stop stop-color="white" stop-opacity="0.3"/>
<stop offset="0.493767" stop-color="white"/>
<stop offset="1" stop-color="white" stop-opacity="0.3"/>
</linearGradient>
<linearGradient id="paint3_linear_2466_696" x1="53.2784" y1="30.0523" x2="53.3489" y2="61.1202" gradientUnits="userSpaceOnUse">
<stop stop-color="white" stop-opacity="0.3"/>
<stop offset="0.493767" stop-color="white"/>
<stop offset="1" stop-color="white" stop-opacity="0.3"/>
</linearGradient>
<linearGradient id="paint4_linear_2466_696" x1="52.6321" y1="75.1944" x2="53.591" y2="40.3451" gradientUnits="userSpaceOnUse">
<stop stop-color="white" stop-opacity="0.3"/>
<stop offset="0.493767" stop-color="white"/>
<stop offset="1" stop-color="white" stop-opacity="0.3"/>
</linearGradient>
<linearGradient id="paint5_linear_2466_696" x1="52.6321" y1="75.1944" x2="53.591" y2="40.3451" gradientUnits="userSpaceOnUse">
<stop stop-color="white" stop-opacity="0.3"/>
<stop offset="0.493767" stop-color="white"/>
<stop offset="1" stop-color="white" stop-opacity="0.3"/>
</linearGradient>
<linearGradient id="paint6_linear_2466_696" x1="52.6321" y1="75.1944" x2="53.591" y2="40.3451" gradientUnits="userSpaceOnUse">
<stop stop-color="white" stop-opacity="0.3"/>
<stop offset="0.493767" stop-color="white"/>
<stop offset="1" stop-color="white" stop-opacity="0.3"/>
</linearGradient>
<linearGradient id="paint7_linear_2466_696" x1="52.6321" y1="75.1944" x2="53.591" y2="40.3451" gradientUnits="userSpaceOnUse">
<stop stop-color="white" stop-opacity="0.3"/>
<stop offset="0.493767" stop-color="white"/>
<stop offset="1" stop-color="white" stop-opacity="0.3"/>
</linearGradient>
<linearGradient id="paint8_linear_2466_696" x1="75.3458" y1="49.5796" x2="42.4429" y2="49.6559" gradientUnits="userSpaceOnUse">
<stop stop-color="white" stop-opacity="0.3"/>
<stop offset="0.493767" stop-color="white"/>
<stop offset="1" stop-color="white" stop-opacity="0.3"/>
</linearGradient>
<linearGradient id="paint9_linear_2466_696" x1="75.3458" y1="49.5796" x2="42.4429" y2="49.6559" gradientUnits="userSpaceOnUse">
<stop stop-color="white" stop-opacity="0.3"/>
<stop offset="0.493767" stop-color="white"/>
<stop offset="1" stop-color="white" stop-opacity="0.3"/>
</linearGradient>
<linearGradient id="paint10_linear_2466_696" x1="75.3458" y1="49.5796" x2="42.4429" y2="49.6559" gradientUnits="userSpaceOnUse">
<stop stop-color="white" stop-opacity="0.3"/>
<stop offset="0.493767" stop-color="white"/>
<stop offset="1" stop-color="white" stop-opacity="0.3"/>
</linearGradient>
<linearGradient id="paint11_linear_2466_696" x1="75.3458" y1="49.5796" x2="42.4429" y2="49.6559" gradientUnits="userSpaceOnUse">
<stop stop-color="white" stop-opacity="0.3"/>
<stop offset="0.493767" stop-color="white"/>
<stop offset="1" stop-color="white" stop-opacity="0.3"/>
</linearGradient>
<linearGradient id="paint12_linear_2466_696" x1="26.5315" y1="54.1977" x2="61.7693" y2="54.116" gradientUnits="userSpaceOnUse">
<stop stop-color="white" stop-opacity="0.3"/>
<stop offset="0.493767" stop-color="white"/>
<stop offset="1" stop-color="white" stop-opacity="0.3"/>
</linearGradient>
<linearGradient id="paint13_linear_2466_696" x1="26.5315" y1="54.1977" x2="61.7693" y2="54.116" gradientUnits="userSpaceOnUse">
<stop stop-color="white" stop-opacity="0.3"/>
<stop offset="0.493767" stop-color="white"/>
<stop offset="1" stop-color="white" stop-opacity="0.3"/>
</linearGradient>
<linearGradient id="paint14_linear_2466_696" x1="26.5315" y1="54.1977" x2="61.7693" y2="54.116" gradientUnits="userSpaceOnUse">
<stop stop-color="white" stop-opacity="0.3"/>
<stop offset="0.493767" stop-color="white"/>
<stop offset="1" stop-color="white" stop-opacity="0.3"/>
</linearGradient>
<linearGradient id="paint15_linear_2466_696" x1="26.5315" y1="54.1977" x2="61.7693" y2="54.116" gradientUnits="userSpaceOnUse">
<stop stop-color="white" stop-opacity="0.3"/>
<stop offset="0.493767" stop-color="white"/>
<stop offset="1" stop-color="white" stop-opacity="0.3"/>
</linearGradient>
</defs>
</svg>
