<svg width="28" height="16" viewBox="0 0 28 16" fill="none" xmlns="http://www.w3.org/2000/svg">
<path d="M1.84232 7.86914L5.07409 9.73452C4.74066 10.3408 4.47018 10.989 4.26965 11.6675L0.664795 10.6999C0.951598 9.70421 1.34799 8.7552 1.84232 7.86914Z" fill="#37AE3F"/>
<path d="M23.0636 11.6675C22.8654 10.989 22.5949 10.3408 22.2615 9.73452L25.4909 7.86914C25.9852 8.7552 26.384 9.70421 26.6708 10.6999L23.0636 11.6675Z" fill="#37AE3F"/>
<path d="M16.9423 1.30302L15.977 4.90788C15.3078 4.74699 14.6129 4.65139 13.8994 4.63506V0.904297C14.9464 0.922951 15.9653 1.06052 16.9423 1.30302Z" fill="#37AE3F"/>
<path d="M20.2251 2.60135L18.3598 5.8308C17.7512 5.49736 17.103 5.22688 16.4268 5.02868L17.3921 1.42383C18.3877 1.7083 19.3368 2.10702 20.2251 2.60135Z" fill="#37AE3F"/>
<path d="M22.0281 9.32825C21.6621 8.73133 21.233 8.17404 20.7527 7.67039L23.3899 5.0332C24.0987 5.7677 24.7283 6.5838 25.2576 7.4652L22.0281 9.32825Z" fill="#37AE3F"/>
<path d="M20.421 7.3422C19.9174 6.85953 19.3601 6.43282 18.7632 6.06674L20.6286 2.83496C21.5076 3.3666 22.3237 3.99383 23.0582 4.70501L20.421 7.3422Z" fill="#37AE3F"/>
<path d="M10.908 5.02966C10.2318 5.22786 9.58358 5.49834 8.975 5.83177L7.10962 2.60233C7.99801 2.108 8.94702 1.70928 9.94267 1.4248L10.908 5.02966Z" fill="#37AE3F"/>
<path d="M4.15056 12.1181C3.98734 12.7849 3.89406 13.4798 3.87774 14.1933H0.146973C0.163295 13.1464 0.300869 12.1274 0.545701 11.1504L4.15056 12.1181Z" fill="#37AE3F"/>
<path d="M6.58278 7.67137C6.10245 8.17502 5.67341 8.7323 5.30733 9.32923L2.07788 7.46384C2.60718 6.58478 3.23675 5.76867 3.9456 5.03418L6.58278 7.67137Z" fill="#37AE3F"/>
<path d="M8.57141 6.06674C7.97449 6.43282 7.41721 6.85953 6.91356 7.3422L4.27637 4.70501C5.01086 3.99383 5.82697 3.3666 6.70603 2.83496L8.57141 6.06674Z" fill="#37AE3F"/>
<path d="M13.4332 4.63506C12.722 4.65139 12.0271 4.74699 11.3579 4.90788L10.3926 1.30302C11.3696 1.06052 12.3885 0.922951 13.4332 0.904297V4.63506Z" fill="#37AE3F"/>
<path d="M23.4579 14.1933C23.4416 13.4798 23.3483 12.7849 23.1851 12.1181L26.7899 11.1504C27.0347 12.1274 27.17 13.1464 27.1886 14.1933H23.4579Z" fill="#37AE3F"/>
<path d="M14.9605 15.1584C14.5478 15.8719 13.6338 16.1168 12.9203 15.704C12.2067 15.2937 11.9619 14.3796 12.3746 13.6661C12.7873 12.9526 13.699 12.7078 14.4126 13.1205C15.1261 13.5309 15.3709 14.4449 14.9605 15.1584Z" fill="white" fill-opacity="0.9"/>
<path d="M13.4008 12.9434L4.32104 14.4123L13.4008 15.8813L13.6666 14.4123L13.4008 12.9434Z" fill="white" fill-opacity="0.9"/>
</svg>
