<?xml version='1.0' encoding='utf-8'?>
<!DOCTYPE svg PUBLIC '-//W3C//DTD SVG 1.1//EN' 'http://www.w3.org/Graphics/SVG/1.1/DTD/svg11.dtd'>
<svg fill="none" stroke="#d1d5db" stroke-width="22" stroke-linecap="round"
  version="1.1" xmlns="http://www.w3.org/2000/svg" viewBox="0 0 512 512">

  <!-- Slightly bolder magnifying glass (joined handle + glass) -->
  <g>
    <circle cx="222.1" cy="222.1" r="169.3"/>
    <line x1="342" y1="342" x2="470" y2="470"/>
  </g>

  <!-- Question mark (slightly scaled up and filled) -->
  <g transform="translate(222, 200) scale(0.75) translate(-222, -200)" fill="#d1d5db" stroke="none">
    <path d="m273.7,127.9c-12.8-11.7-29.9-17.5-51.4-17.5
      -20.3,0-36.6,5.4-48.9,16.3-12.3,10.9-19.8,26.6-22.2,47l27.7,3.3
      c2.4-15.3 7.4-26.5 15.1-33.7 7.7-7.2 17.3-10.8 28.8-10.8
      11.9,0 21.9,4 30.1,11.9 8.2,7.9 12.3,17.2 12.3,27.6
      0,5.8-1.4,11.1-4.2,16-2.8,4.9-8.9,11.5-18.2,19.7
      -9.3,8.2-15.8,14.5-19.4,18.8-4.9,5.9-8.4,11.7-10.6,17.5
      -3,7.7-4.5,16.8-4.5,27.4 0,1.8 0.1,4.5 0.2,8.1h25.9
      c0.2-10.8 0.9-18.6 2.2-23.4 1.3-4.8 3.3-9 6-12.7
      2.7-3.7 8.4-9.4 17.2-17.2 13.1-11.6 21.9-21.4 26.4-29.5
      4.5-8.1 6.7-16.9 6.7-26.5 0-16.4-6.4-30.6-19.2-42.3z"/>
    <rect width="30.7" x="206.8" y="303.1" height="30.7"/>
  </g>

</svg>
