<?xml version="1.0" encoding="iso-8859-1"?>
<!-- Uploaded to: SVG Repo, www.svgrepo.com, Generator: SVG Repo Mixer Tools -->
<!DOCTYPE svg PUBLIC "-//W3C//DTD SVG 1.1//EN" "http://www.w3.org/Graphics/SVG/1.1/DTD/svg11.dtd">
<svg fill="#d1d5db" height="800px" width="800px" version="1.1" id="Capa_1" xmlns="http://www.w3.org/2000/svg" xmlns:xlink="http://www.w3.org/1999/xlink" 
	 viewBox="0 0 340.931 340.931" xml:space="preserve">
<g>
	<path d="M336.549,275.489l-70.044-70.044c-2.825-2.825-6.592-4.381-10.606-4.381c-4.015,0-7.781,1.556-10.607,4.381l-9.588,9.588
		l-20.118-20.118c37.047-47.283,33.816-116.068-9.708-159.591C183.101,12.545,152.814,0,120.601,0
		c-32.214,0-62.5,12.545-85.278,35.323C12.544,58.102,0,88.387,0,120.601c0,32.213,12.544,62.499,35.323,85.277
		c22.778,22.779,53.064,35.323,85.278,35.323c27.028,0,52.697-8.835,73.715-25.132l20.175,20.176l-9.046,9.046
		c-2.826,2.825-4.382,6.592-4.382,10.606c0,4.015,1.556,7.782,4.382,10.607l70.044,70.044c2.825,2.825,6.592,4.381,10.607,4.381
		c4.015,0,7.781-1.556,10.606-4.381l39.847-39.847c2.826-2.825,4.382-6.592,4.382-10.607
		C340.931,282.081,339.375,278.314,336.549,275.489z M56.536,184.666C39.424,167.553,30,144.801,30,120.601
		c0-24.201,9.424-46.953,26.536-64.065C73.648,39.424,96.4,30,120.601,30c24.2,0,46.952,9.424,64.065,26.536
		c35.324,35.326,35.324,92.804,0,128.129c-17.113,17.112-39.865,26.536-64.065,26.536C96.4,211.202,73.648,201.778,56.536,184.666z"
		/>
	<path d="M121.45,154.231c-8.636,0-15.148,6.999-15.148,16.279c0,9.173,6.593,16.09,15.336,16.09c8.808,0,14.96-6.617,14.96-16.09
		C136.598,160.925,130.369,154.231,121.45,154.231z"/>
	<path d="M114.886,142.376h13.127c2.737,0,5.046-2.444,5.148-5.179l2.721-73.452c0.049-1.337-0.43-2.767-1.35-3.722
		c-0.92-0.954-2.164-1.647-3.502-1.647h-18.975c-1.338,0-2.582,0.638-3.503,1.592c-0.921,0.955-1.403,2.272-1.357,3.609
		l2.551,73.589C109.843,139.902,112.148,142.376,114.886,142.376z"/>
</g>
</svg>