<svg width="36" height="37" viewBox="0 0 36 37" fill="none" xmlns="http://www.w3.org/2000/svg">
<rect y="0.5" width="36" height="36" rx="18" fill="white" fill-opacity="0.08"/>
<path d="M25.3366 18.5023V19.8356C25.3366 22.0447 22.0533 23.8356 18.0033 23.8356C14.0255 23.8356 10.7874 22.1081 10.673 19.9535L10.6699 19.8356V18.5023C10.6699 20.7114 13.9532 22.5023 18.0033 22.5023C22.0533 22.5023 25.3366 20.7114 25.3366 18.5023ZM18.0033 13.1689C22.0533 13.1689 25.3366 14.9598 25.3366 17.1689C25.3366 19.3781 22.0533 21.1689 18.0033 21.1689C13.9532 21.1689 10.6699 19.3781 10.6699 17.1689C10.6699 14.9598 13.9532 13.1689 18.0033 13.1689Z" fill="white"/>
</svg>
