<svg width="28" height="16" viewBox="0 0 28 16" fill="none" xmlns="http://www.w3.org/2000/svg">
<path d="M2.11502 7.34961L5.34679 9.21499C5.01335 9.82357 4.74287 10.4695 4.54235 11.148L0.9375 10.1803C1.2243 9.18467 1.62069 8.238 2.11502 7.34961Z" fill="#F7981D"/>
<path d="M23.336 11.148C23.1378 10.4695 22.8674 9.82357 22.5339 9.21499L25.7634 7.34961C26.2577 8.238 26.6564 9.18467 26.9409 10.1803L23.336 11.148Z" fill="#F7981D"/>
<path d="M17.2153 0.78349L16.2476 4.38834C15.5807 4.22745 14.8859 4.13418 14.1724 4.11552V0.384766C15.2193 0.403419 16.2383 0.540991 17.2153 0.78349Z" fill="#F7981D"/>
<path d="M20.4962 2.08279L18.6332 5.31456C18.0246 4.98112 17.3764 4.71064 16.7002 4.51012L17.6655 0.905273C18.6612 1.19208 19.6102 1.58847 20.4962 2.08279Z" fill="#F7981D"/>
<path d="M22.2987 8.81202C21.9349 8.21276 21.5059 7.65781 21.0232 7.15183L23.6604 4.51465C24.3716 5.25147 24.9988 6.06525 25.5304 6.94664L22.2987 8.81202Z" fill="#F7981D"/>
<path d="M20.6945 6.82265C20.1908 6.33998 19.6335 5.91328 19.0366 5.5472L20.902 2.31543C21.7811 2.84706 22.5972 3.47429 23.3316 4.18547L20.6945 6.82265Z" fill="#F7981D"/>
<path d="M11.1807 4.51012C10.5022 4.71064 9.85628 4.98112 9.2477 5.31456L7.38232 2.08279C8.27071 1.58847 9.2174 1.19208 10.213 0.905273L11.1807 4.51012Z" fill="#F7981D"/>
<path d="M4.42104 11.5981C4.26015 12.265 4.16689 12.9599 4.14824 13.6734H0.41748C0.436134 12.6264 0.573708 11.6098 0.816207 10.6328L4.42104 11.5981Z" fill="#F7981D"/>
<path d="M6.85562 7.15183C6.37295 7.65781 5.94624 8.21276 5.58016 8.81202L2.34839 6.94664C2.88002 6.06525 3.50726 5.25147 4.21844 4.51465L6.85562 7.15183Z" fill="#F7981D"/>
<path d="M8.84424 5.5472C8.24498 5.91328 7.69003 6.33998 7.18404 6.82265L4.54688 4.18547C5.2837 3.47429 6.09747 2.84706 6.97886 2.31543L8.84424 5.5472Z" fill="#F7981D"/>
<path d="M13.7061 4.11552C12.9926 4.13418 12.2977 4.22745 11.6309 4.38834L10.6655 0.78349C11.6425 0.540991 12.6591 0.403419 13.7061 0.384766V4.11552Z" fill="#F7981D"/>
<path d="M23.7306 13.6734C23.7119 12.9599 23.6187 12.265 23.4578 11.5981L27.0626 10.6328C27.3051 11.6098 27.4427 12.6264 27.4613 13.6734H23.7306Z" fill="#F7981D"/>
<path d="M13.193 15.1835C12.4794 14.7731 12.2346 13.8591 12.6473 13.1456C13.0577 12.4321 13.9718 12.1873 14.6853 12.6C15.3988 13.0127 15.6436 13.9244 15.2309 14.6379C14.8205 15.3514 13.9065 15.5962 13.193 15.1835Z" fill="white" fill-opacity="0.9"/>
<path d="M15.4082 13.6243L13.9392 4.54688L12.4702 13.6243L13.9392 13.8924L15.4082 13.6243Z" fill="white" fill-opacity="0.9"/>
</svg>
