<svg width="13" height="12" viewBox="0 0 13 12" fill="none" xmlns="http://www.w3.org/2000/svg">
<g clip-path="url(#clip0_981_32997)">
<mask id="mask0_981_32997" style="mask-type:luminance" maskUnits="userSpaceOnUse" x="0" y="0" width="13" height="12">
<path d="M13.0004 0H0.130859V12H13.0004V0Z" fill="white"/>
</mask>
<g mask="url(#mask0_981_32997)">
<path d="M1.63379 8.10903V11.5638C1.63379 11.7765 1.81378 11.8648 1.86978 11.8848C1.92578 11.9089 2.11376 11.9611 2.28174 11.8046L4.89531 9.29296C5.11788 9.0791 5.33268 8.85428 5.49411 8.59124C5.57009 8.46758 5.60159 8.39793 5.60159 8.39793C5.76159 8.07291 5.76159 7.75993 5.60554 7.44694C5.37364 6.9815 4.78162 6.508 3.88964 6.05859L2.36574 6.90927C1.91378 7.16607 1.63379 7.6195 1.63379 8.10903Z" fill="white" fill-opacity="0.8"/>
<path d="M0.130859 0.424165V4.04752C0.130859 4.50093 0.434849 4.90218 0.866832 5.03058C2.33876 5.45592 4.9026 6.37077 5.52258 7.715C5.60251 7.89153 5.65053 8.06409 5.66663 8.24465C6.07858 7.4943 6.26656 6.63159 6.17858 5.75686C6.05853 4.51698 5.40255 3.38945 4.37865 2.6712L0.726835 0.115196C0.66283 0.0670449 0.586837 0.0429688 0.510842 0.0429688C0.446839 0.0429688 0.390842 0.0550068 0.330849 0.0871075C0.21085 0.155321 0.130859 0.279712 0.130859 0.424165Z" fill="white"/>
<path d="M11.3539 8.10903V11.5638C11.3539 11.7765 11.174 11.8648 11.1179 11.8848C11.062 11.9089 10.8739 11.9611 10.706 11.8046L8.03157 9.23456C7.84951 9.05957 7.67567 8.87452 7.53854 8.66247C7.42993 8.49465 7.38616 8.39793 7.38616 8.39793C7.22614 8.07291 7.22614 7.75993 7.38205 7.44694C7.61409 6.9815 8.20612 6.508 9.09796 6.05859L10.6219 6.90927C11.0779 7.16607 11.3539 7.6195 11.3539 8.10903Z" fill="white" fill-opacity="0.8"/>
<path d="M12.859 0.424164V4.04751C12.859 4.50092 12.555 4.90217 12.123 5.03059C10.6511 5.45591 8.08727 6.37078 7.46729 7.71499C7.38722 7.89155 7.33921 8.06409 7.32324 8.24466C6.91129 7.49431 6.72331 6.6316 6.81129 5.75687C6.93119 4.51697 7.58719 3.38946 8.61122 2.6712L12.263 0.115194C12.327 0.0670435 12.403 0.0429688 12.479 0.0429688C12.543 0.0429688 12.599 0.0550068 12.6589 0.0871075C12.7789 0.155321 12.859 0.279712 12.859 0.424164Z" fill="white"/>
</g>
</g>
<defs>
<clipPath id="clip0_981_32997">
<rect width="12.8696" height="12" fill="white" transform="translate(0.130859)"/>
</clipPath>
</defs>
</svg>
