<svg width="40" height="40" viewBox="0 0 40 40" fill="none" xmlns="http://www.w3.org/2000/svg">
<rect width="40" height="40" rx="20" fill="white"/>
<path d="M19.9999 26.6673C16.318 26.6673 13.3333 23.6825 13.3333 20.0007C13.3333 16.3188 16.318 13.334 19.9999 13.334C23.6818 13.334 26.6666 16.3188 26.6666 20.0007C26.6666 23.6825 23.6818 26.6673 19.9999 26.6673ZM19.9999 25.334C22.9455 25.334 25.3333 22.9462 25.3333 20.0007C25.3333 17.0551 22.9455 14.6673 19.9999 14.6673C17.0544 14.6673 14.6666 17.0551 14.6666 20.0007C14.6666 22.9462 17.0544 25.334 19.9999 25.334ZM19.3333 22.0007H20.6666V23.334H19.3333V22.0007ZM20.6666 20.9041V21.334H19.3333V20.334C19.3333 19.9658 19.6317 19.6673 19.9999 19.6673C20.5522 19.6673 20.9999 19.2196 20.9999 18.6673C20.9999 18.115 20.5522 17.6673 19.9999 17.6673C19.5148 17.6673 19.1103 18.0128 19.0191 18.4712L17.7115 18.2096C17.9242 17.1401 18.8679 16.334 19.9999 16.334C21.2886 16.334 22.3333 17.3787 22.3333 18.6673C22.3333 19.7243 21.6304 20.6172 20.6666 20.9041Z" fill="black"/>
</svg>
