<svg width="17" height="16" viewBox="0 0 17 16" fill="none" xmlns="http://www.w3.org/2000/svg">
<path d="M4.61011 2.53766L5.37479 3.63006C3.99935 4.59465 3.10018 6.19216 3.10018 7.99967C3.10018 10.9452 5.48799 13.333 8.43351 13.333C11.379 13.333 13.7668 10.9452 13.7668 7.99967C13.7668 6.19216 12.8676 4.59465 11.4922 3.63006L12.2569 2.53766C13.9762 3.7434 15.1002 5.74028 15.1002 7.99967C15.1002 11.6815 12.1154 14.6663 8.43351 14.6663C4.75161 14.6663 1.76685 11.6815 1.76685 7.99967C1.76685 5.74028 2.89081 3.7434 4.61011 2.53766ZM7.76685 7.99967V1.33301H9.10018V7.99967H7.76685Z" fill="white"/>
</svg>
