<svg width="36" height="36" viewBox="0 0 36 36" fill="none" xmlns="http://www.w3.org/2000/svg">
<rect width="36" height="36" rx="18" fill="white" fill-opacity="0.08"/>
<path d="M13.5557 13.0303C14.2326 12.4246 15.034 11.9551 15.9167 11.665C16.4054 12.2755 17.1569 12.6665 17.9997 12.6665C18.8425 12.6665 19.5939 12.2755 20.0827 11.665C20.9654 11.9551 21.7667 12.4246 22.4436 13.0303C22.16 13.7583 22.1974 14.6039 22.6185 15.3332C23.0398 16.0629 23.7539 16.5182 24.5267 16.6363C24.6183 17.0765 24.6663 17.5325 24.6663 17.9999C24.6663 18.4671 24.6183 18.9233 24.5267 19.3634C23.7539 19.4815 23.0398 19.9368 22.6185 20.6665C22.1974 21.3958 22.16 22.2414 22.4436 22.9694C21.7667 23.5751 20.9654 24.0446 20.0827 24.3347C19.5939 23.7242 18.8425 23.3332 17.9997 23.3332C17.1569 23.3332 16.4054 23.7242 15.9167 24.3347C15.034 24.0446 14.2326 23.5751 13.5557 22.9694C13.8394 22.2414 13.8019 21.3958 13.3809 20.6665C12.9596 19.9368 12.2454 19.4815 11.4726 19.3634C11.3811 18.9233 11.333 18.4671 11.333 17.9999C11.333 17.5325 11.3811 17.0765 11.4726 16.6363C12.2454 16.5182 12.9596 16.0629 13.3809 15.3332C13.8019 14.6039 13.8394 13.7583 13.5557 13.0303ZM18.9997 19.7319C19.9563 19.1796 20.284 17.9565 19.7317 16.9999C19.1794 16.0433 17.9563 15.7155 16.9997 16.2678C16.0431 16.8201 15.7153 18.0433 16.2676 18.9999C16.8199 19.9565 18.0431 20.2842 18.9997 19.7319Z" fill="white"/>
</svg>
