<svg width="16" height="16" viewBox="0 0 16 16" fill="none" xmlns="http://www.w3.org/2000/svg">
<g clip-path="url(#clip0_1022_41567)">
<path d="M8 16C12.4183 16 16 12.4183 16 8C16 3.58172 12.4183 0 8 0C3.58172 0 0 3.58172 0 8C0 12.4183 3.58172 16 8 16Z" fill="url(#paint0_linear_1022_41567)"/>
<path fill-rule="evenodd" clip-rule="evenodd" d="M3.62103 7.91613C5.95322 6.89988 7.50822 6.23019 8.28635 5.90644C10.5082 4.98238 10.9698 4.82176 11.2707 4.81644C11.337 4.81551 11.4848 4.83176 11.5807 4.90957C11.6617 4.97519 11.6838 5.06394 11.6945 5.12613C11.7051 5.18863 11.7185 5.33019 11.7079 5.44113C11.5876 6.70613 11.0667 9.77582 10.8017 11.1927C10.6895 11.7924 10.4685 11.9933 10.2548 12.013C9.79041 12.0558 9.43759 11.7058 8.98759 11.4108C8.28353 10.9496 7.88572 10.6621 7.20228 10.2118C6.41228 9.69113 6.92447 9.40519 7.37447 8.93769C7.49228 8.81519 9.53916 6.95332 9.57885 6.78457C9.58385 6.76332 9.58853 6.68457 9.54166 6.64301C9.49478 6.60144 9.42572 6.61582 9.37603 6.62707C9.30541 6.64301 8.18072 7.38644 6.00166 8.85738C5.68228 9.07676 5.39291 9.18332 5.13384 9.17801C4.84822 9.17176 4.29885 9.01644 3.89041 8.88363C3.38947 8.72082 2.99135 8.63457 3.02603 8.35801C3.04385 8.21394 3.24228 8.06676 3.62103 7.91613Z" fill="white"/>
</g>
<defs>
<linearGradient id="paint0_linear_1022_41567" x1="8" y1="0.12" x2="8" y2="16" gradientUnits="userSpaceOnUse">
<stop stop-color="#2AABEE"/>
<stop offset="1" stop-color="#229ED9"/>
</linearGradient>
<clipPath id="clip0_1022_41567">
<rect width="16" height="16" fill="white"/>
</clipPath>
</defs>
</svg>
