<svg width="64" height="64" viewBox="0 0 64 64" fill="none" xmlns="http://www.w3.org/2000/svg">
<g filter="url(#filter0_d_2140_12621)">
<rect x="4" width="56" height="56" rx="28" fill="#084FAA" fill-opacity="0.1" shape-rendering="crispEdges"/>
<rect x="13.3335" y="9.33301" width="37.3333" height="37.3333" rx="18.6667" fill="#084FAA"/>
<path d="M32.0004 35.7772C27.7049 35.7772 24.2227 32.295 24.2227 27.9995C24.2227 23.7039 27.7049 20.2217 32.0004 20.2217C36.2959 20.2217 39.7782 23.7039 39.7782 27.9995C39.7782 32.295 36.2959 35.7772 32.0004 35.7772ZM32.0004 34.2217C35.4369 34.2217 38.2227 31.4359 38.2227 27.9995C38.2227 24.563 35.4369 21.7772 32.0004 21.7772C28.564 21.7772 25.7782 24.563 25.7782 27.9995C25.7782 31.4359 28.564 34.2217 32.0004 34.2217ZM32.7782 27.9995H35.8893V29.555H31.2227V24.1106H32.7782V27.9995Z" fill="white"/>
</g>
<defs>
<filter id="filter0_d_2140_12621" x="0" y="0" width="64" height="64" filterUnits="userSpaceOnUse" color-interpolation-filters="sRGB">
<feFlood flood-opacity="0" result="BackgroundImageFix"/>
<feColorMatrix in="SourceAlpha" type="matrix" values="0 0 0 0 0 0 0 0 0 0 0 0 0 0 0 0 0 0 127 0" result="hardAlpha"/>
<feOffset dy="4"/>
<feGaussianBlur stdDeviation="2"/>
<feComposite in2="hardAlpha" operator="out"/>
<feColorMatrix type="matrix" values="0 0 0 0 0 0 0 0 0 0 0 0 0 0 0 0 0 0 0.25 0"/>
<feBlend mode="normal" in2="BackgroundImageFix" result="effect1_dropShadow_2140_12621"/>
<feBlend mode="normal" in="SourceGraphic" in2="effect1_dropShadow_2140_12621" result="shape"/>
</filter>
</defs>
</svg>
