<svg width="40" height="40" viewBox="0 0 40 40" fill="none" xmlns="http://www.w3.org/2000/svg">
<rect width="40" height="40" rx="20" fill="#F7981D" fill-opacity="0.08"/>
<path d="M20.5773 13.9995L26.9281 24.9995C27.1123 25.3183 27.003 25.7261 26.6841 25.9101C26.5828 25.9687 26.4678 25.9995 26.3508 25.9995H13.6491C13.2809 25.9995 12.9824 25.701 12.9824 25.3328C12.9824 25.2157 13.0132 25.1008 13.0717 24.9995L19.4226 13.9995C19.6067 13.6806 20.0144 13.5713 20.3333 13.7554C20.4346 13.814 20.5188 13.8981 20.5773 13.9995ZM14.8038 24.6661H25.1961L19.9999 15.6661L14.8038 24.6661ZM19.3333 22.6662H20.6666V23.9995H19.3333V22.6662ZM19.3333 17.9995H20.6666V21.3328H19.3333V17.9995Z" fill="#F7981D"/>
</svg>
