<svg width="56" height="56" viewBox="0 0 56 56" fill="none" xmlns="http://www.w3.org/2000/svg">
<rect width="56" height="56" rx="28" fill="#261C1B"/>
<rect x="9.33301" y="9.33301" width="37.3333" height="37.3333" rx="18.6667" fill="#BD413B" fill-opacity="0.3"/>
<path d="M27.9995 35.7772C23.7039 35.7772 20.2217 32.295 20.2217 27.9995C20.2217 23.7039 23.7039 20.2217 27.9995 20.2217C32.295 20.2217 35.7772 23.7039 35.7772 27.9995C35.7772 32.295 32.295 35.7772 27.9995 35.7772ZM27.9995 34.2217C31.4359 34.2217 34.2217 31.4359 34.2217 27.9995C34.2217 24.563 31.4359 21.7772 27.9995 21.7772C24.563 21.7772 21.7772 24.563 21.7772 27.9995C21.7772 31.4359 24.563 34.2217 27.9995 34.2217ZM27.2217 30.3328H28.7772V31.8883H27.2217V30.3328ZM27.2217 24.1106H28.7772V28.7772H27.2217V24.1106Z" fill="#BD413B"/>
</svg>
