<svg width="10" height="10" viewBox="0 0 10 10" fill="none" xmlns="http://www.w3.org/2000/svg">
<g id="Group">
<path id="Vector" d="M9.70718 0.721744H8.4239C8.42855 0.579614 8.43115 0.436624 8.43115 0.292971C8.43115 0.131153 8.29992 0 8.13817 0H1.86198C1.70024 0 1.56901 0.131153 1.56901 0.292971C1.56901 0.436624 1.57161 0.579614 1.57626 0.721744H0.292973C0.131154 0.721744 0 0.852897 0 1.01471C0 2.32744 0.343091 3.56593 0.966031 4.50214C1.58182 5.42768 2.40207 5.95852 3.28818 6.01016C3.48906 6.22876 3.70139 6.40698 3.92256 6.54294V7.84506H3.43107C2.83688 7.84506 2.35355 8.32846 2.35355 8.92257V9.41406H2.33273C2.17089 9.41406 2.03976 9.54529 2.03976 9.70703C2.03976 9.86885 2.17089 10 2.33273 10H7.66742C7.82926 10 7.9604 9.86885 7.9604 9.70703C7.9604 9.54529 7.82926 9.41406 7.66742 9.41406H7.6466V8.92257C7.6466 8.32846 7.16328 7.84506 6.56909 7.84506H6.0776V6.54294C6.29877 6.40706 6.5112 6.22876 6.71206 6.01018C7.59809 5.95852 8.41833 5.42768 9.03418 4.50214C9.65712 3.56593 10.0002 2.32744 10.0002 1.01471C10.0002 0.852897 9.869 0.721744 9.70718 0.721744ZM1.45387 4.17759C0.940034 3.4054 0.638135 2.39543 0.592138 1.30769H1.60899C1.71466 2.64483 2.02853 3.88079 2.51912 4.86187C2.59725 5.01813 2.67895 5.16574 2.76372 5.30477C2.2764 5.12074 1.82542 4.73605 1.45387 4.17759ZM7.06066 8.92257V9.41414H2.9395V8.92257C2.9395 8.65157 3.16001 8.431 3.43107 8.431H6.56909C6.84017 8.431 7.06066 8.65157 7.06066 8.92257ZM5.49165 7.84506H4.50851V6.79753C4.66957 6.83996 4.83367 6.86201 5.00008 6.86201C5.16649 6.86201 5.33059 6.83996 5.49165 6.79755V7.84506ZM5.67308 6.10052C5.65987 6.10593 5.64722 6.11249 5.63509 6.11974C5.42801 6.22274 5.21524 6.27606 5.00008 6.27606C4.785 6.27606 4.5723 6.22274 4.3653 6.11989C4.35301 6.11245 4.34018 6.10592 4.32692 6.10036C4.09719 5.97889 3.87496 5.79547 3.66476 5.55446C3.65377 5.53874 3.64128 5.52413 3.62746 5.51082C3.41878 5.26311 3.22247 4.95838 3.04319 4.5998C2.50477 3.52304 2.19378 2.10724 2.15839 0.585942H7.84176C7.80629 2.10724 7.49531 3.52313 6.95698 4.5998C6.77768 4.9584 6.58137 5.26309 6.3728 5.51082C6.35889 5.52411 6.34631 5.53875 6.33531 5.55455C6.12513 5.79563 5.90281 5.97897 5.67308 6.10052ZM8.54629 4.17759C8.17472 4.73605 7.72373 5.12074 7.23644 5.30475C7.32413 5.16061 7.40573 5.01285 7.48104 4.86187C7.97163 3.88081 8.28542 2.64483 8.39117 1.30769H9.40804C9.36202 2.39543 9.06014 3.4054 8.54629 4.17759Z" fill="#8E8E8E"/>
</g>
</svg>
