<svg width="37" height="37" viewBox="0 0 37 37" xmlns="http://www.w3.org/2000/svg"><g xmlns="http://www.w3.org/2000/svg" width="37" height="37" fill="none" viewBox="0 0 37 37" transform="translate(0, 0) scale(0.115625, 0.115625)"><rect width="320" height="320" fill="#D6E438" rx="160"></rect><rect width="240.66" height="240.66" x="39.67" y="39.67" stroke="#0E191A" stroke-width="12.67" rx="120.33"></rect><path fill="#0E191A" d="M236.989 76.752V68l-50.683 18.278a6.74 6.74 0 0 0 4.457-6.328V58.712a.5.5 0 0 0-.67-.47l-60.252 21.781a1 1 0 0 0-.66.94v22.775a4.48 4.48 0 0 1-2.979 4.219l-29.945 10.806C88.326 121.636 83 129.199 83 137.592c0 7.754 4.57 14.89 11.655 18.155l87.815 40.643c2.053.954 3.385 3.018 3.385 5.262v5.162L83 244.056V253l50.638-18.347a6.74 6.74 0 0 0-4.457 6.329v21.305a.5.5 0 0 0 .67.47l60.252-21.781a1 1 0 0 0 .66-.941v-22.92a4.5 4.5 0 0 1 2.967-4.219l30.035-10.873c7.909-2.884 13.224-10.436 13.224-18.807v-.628c0-7.754-4.57-14.879-11.644-18.156l-88.481-41.012c-2.053-.954-3.384-3.019-3.384-5.263v-3.972z"></path></g></svg>