
<svg width="37" height="37" viewBox="0 0 37 37" fill="none" xmlns="http://www.w3.org/2000/svg">
<g clip-path="url(#clip0_7093_10643)">
<path d="M18.5 37C28.7173 37 37 28.7173 37 18.5C37 8.28273 28.7173 0 18.5 0C8.28273 0 0 8.28273 0 18.5C0 28.7173 8.28273 37 18.5 37Z" fill="url(#paint0_radial_7093_10643)"/>
<path d="M11.4247 23.3632H8.79199C9.00686 27.4734 12.4455 31.0464 18.5436 31.0464C24.615 31.0464 28.4834 27.7152 28.4834 23.4169C28.4834 15.2502 16.1528 15.7069 16.1528 10.9788C16.1528 9.66247 17.1467 8.1043 19.457 8.1043C22.036 8.1043 25.0717 10.1192 25.2866 12.6981H27.8924C27.6238 8.53413 23.5673 5.63281 18.4093 5.63281C13.0634 5.63281 9.03374 8.74907 9.03374 13.1548C9.03374 21.5633 21.3644 20.4618 21.3644 25.6466C21.3644 27.2585 20.3704 28.6017 17.8721 28.6017C14.7558 28.6017 11.6127 26.4257 11.4247 23.3632ZM13.6275 11.5967C13.6275 17.9903 25.8508 16.7278 25.8508 23.5513C25.8508 25.593 24.5075 27.3929 22.8957 27.8495C23.4598 27.3122 23.8896 26.1302 23.8896 25.0019C23.8896 18.6889 11.6395 19.5485 11.6395 13.0742C11.6395 10.8982 13.0365 9.15201 14.7827 8.61476C14.111 9.42064 13.6275 10.4684 13.6275 11.5967Z" fill="white"/>
</g>
<g clip-path="url(#clip1_7093_10643)">
<path d="M28.9999 37C33.4079 37 36.9812 33.4183 36.9812 29C36.9812 24.5817 33.4079 21 28.9999 21C24.592 21 21.0187 24.5817 21.0187 29C21.0187 33.4183 24.592 37 28.9999 37Z" fill="url(#paint1_linear_7093_10643)"/>
<path d="M30.6487 29.7864H35.1958C35.3707 29.7864 35.4059 29.5477 35.2469 29.4748L30.649 27.3757V22.8002C30.649 22.6294 30.4211 22.5733 30.3424 22.7249L28.4522 26.3729L26.3576 25.4087C26.1572 25.3275 26.0341 25.4911 26.1021 25.6316L27.3512 28.2142H22.8041C22.6292 28.2142 22.594 28.4529 22.753 28.5258L27.3509 30.6249V35.2005C27.3509 35.3712 27.5788 35.4273 27.6574 35.2758L29.5477 31.6277L31.6423 32.592C31.8427 32.6731 31.9658 32.5096 31.8977 32.369L30.6487 29.7864Z" fill="white"/>
</g>
<defs>
<radialGradient id="paint0_radial_7093_10643" cx="0" cy="0" r="1" gradientUnits="userSpaceOnUse" gradientTransform="translate(18.5 42.8855) rotate(-90) scale(59.2835)">
<stop stop-color="#FFD232"/>
<stop offset="1" stop-color="#FF6D6D"/>
</radialGradient>
<linearGradient id="paint1_linear_7093_10643" x1="35.3709" y1="22.2121" x2="22.0478" y2="35.1602" gradientUnits="userSpaceOnUse">
<stop stop-color="#FA43BD"/>
<stop offset="1" stop-color="#FFA930"/>
</linearGradient>
<clipPath id="clip0_7093_10643">
<rect width="37" height="37" fill="white"/>
</clipPath>
<clipPath id="clip1_7093_10643">
<rect width="16" height="16" fill="white" transform="translate(21 21)"/>
</clipPath>
</defs>
</svg>
