<svg
   width="32"
   height="32"
   fill="none"
   version="1.1"
   id="svg6"
   sodipodi:docname="stcUSD_ab.svg"
   inkscape:version="1.4 (86a8ad7, 2024-10-11)"
   xmlns:inkscape="http://www.inkscape.org/namespaces/inkscape"
   xmlns:sodipodi="http://sodipodi.sourceforge.net/DTD/sodipodi-0.dtd"
   xmlns="http://www.w3.org/2000/svg"
   xmlns:svg="http://www.w3.org/2000/svg">
  <sodipodi:namedview
     id="namedview6"
     pagecolor="#ffffff"
     bordercolor="#000000"
     borderopacity="0.25"
     inkscape:showpageshadow="2"
     inkscape:pageopacity="0.0"
     inkscape:pagecheckerboard="0"
     inkscape:deskcolor="#d1d1d1"
     inkscape:zoom="18.632713"
     inkscape:cx="31.745243"
     inkscape:cy="26.700352"
     inkscape:window-width="2560"
     inkscape:window-height="1369"
     inkscape:window-x="1912"
     inkscape:window-y="-8"
     inkscape:window-maximized="1"
     inkscape:current-layer="svg6" />
  <g
     clip-path="url(#a)"
     id="g4"
     transform="matrix(0.03134184,0,0,0.03134184,4.8441777e-4,4.8441777e-4)">
    <path
       fill="#d1f019"
       stroke="#d1f019"
       stroke-width="10.667"
       d="m 510.5,1015.67 c 278.995,0 505.17,-226.175 505.17,-505.17 C 1015.67,231.504 789.495,5.334 510.5,5.334 231.504,5.334 5.334,231.504 5.334,510.5 c 0,278.995 226.17,505.17 505.166,505.17 z"
       id="path1" />
    <path
       fill="#292929"
       d="m 430.37,100 v 38.474 l -1.365,1.012 c -93.091,19.673 -176.275,75.89 -230.539,153.497 -86.596,123.87 -90.95,288.992 -10.778,417.239 53.723,85.914 141.637,148.767 241.317,169.687 l 1.365,1.035 v 38.475 C 326.149,900.17 231.763,838.681 170.228,753.097 62.335,603.036 66.336,398.122 180.441,252.744 242.117,174.195 331.631,118.261 430.394,100.024 Z M 589.869,919.393 V 879.742 C 688.373,859.34 776.334,796.911 829.868,712.315 915.1,577.572 906.817,402.944 808.878,277.332 754.732,207.891 676.56,157.933 590.034,139.531 l -0.141,-39.51 C 695.338,120.706 790.194,182.57 851.611,270.32 953.598,415.981 951.95,610.799 847.635,754.695 786.076,839.597 693.102,899.109 589.869,919.44 Z"
       id="path2" />
    <g
       filter="url(#b)"
       id="g3">
      <path
         fill="#292929"
         d="m 540.424,481.574 c 62.733,11.501 118.146,30.32 117.623,104.031 -0.523,60.641 -44.435,104.031 -113.963,113.441 v 54.89 H 479.26 V 698.523 C 407.641,687.022 364.251,642.064 363.729,577.763 l 76.847,1.046 c 2.613,35.548 30.843,60.118 75.801,60.118 36.071,0 62.732,-15.683 62.732,-44.435 0,-30.843 -29.798,-37.117 -90.962,-49.14 -61.686,-11.501 -116.054,-31.366 -116.054,-105.6 0,-56.981 41.299,-99.326 107.167,-108.735 v -55.414 h 64.824 v 55.936 c 65.346,10.979 105.599,52.277 106.644,112.396 h -76.847 c -3.659,-30.844 -27.183,-52.277 -65.346,-52.277 -33.457,0 -57.504,14.114 -57.504,42.344 0,29.798 28.752,36.071 89.393,47.572 z"
         id="path3" />
    </g>
  </g>
  <defs
     id="defs6">
    <clipPath
       id="a">
      <path
         fill="#ffffff"
         d="M 0,0 H 1021 V 1021 H 0 Z"
         id="path4" />
    </clipPath>
    <filter
       id="b"
       width="307.77802"
       height="491.789"
       x="357.00101"
       y="275.603"
       color-interpolation-filters="sRGB"
       filterUnits="userSpaceOnUse">
      <feFlood
         flood-opacity="0"
         result="BackgroundImageFix"
         id="feFlood4" />
      <feColorMatrix
         in="SourceAlpha"
         result="hardAlpha"
         values="0 0 0 0 0 0 0 0 0 0 0 0 0 0 0 0 0 0 127 0"
         id="feColorMatrix4" />
      <feOffset
         dy="6.728"
         id="feOffset4" />
      <feGaussianBlur
         stdDeviation="3.364"
         id="feGaussianBlur4" />
      <feComposite
         in2="hardAlpha"
         operator="out"
         id="feComposite4" />
      <feColorMatrix
         values="0 0 0 0 0 0 0 0 0 0 0 0 0 0 0 0 0 0 0.25 0"
         id="feColorMatrix5" />
      <feBlend
         in2="BackgroundImageFix"
         result="effect1_dropShadow_215_35"
         id="feBlend5"
         mode="normal" />
      <feBlend
         in="SourceGraphic"
         in2="effect1_dropShadow_215_35"
         result="shape"
         id="feBlend6"
         mode="normal" />
    </filter>
  </defs>
</svg>
